<?xml version="1.0" encoding="UTF-8" standalone="no"?>
<svg xmlns="http://www.w3.org/2000/svg" width="38" height="38" viewBox="0 0 10.054166 10.054166">
    <g transform="translate(-11.223271,-248.751622)" style="fill:#ffffff">
      <path d="m 14.368697,250.65729 a 1.3007583,1.300758 0 0 0 -1.300758,1.30076 1.3007583,1.300758 0 0 0 1.009148,1.26637 1.5960997,1.5960997 0 0 1 1.552505,-1.58069 1.3007583,1.300758 0 0 0 -1.260895,-0.98644 z m 4.841172,1.58093 a 1.5081255,1.5081255 0 0 0 -1.470202,1.17775 l -0.824437,-0.0999 a 0.12567713,0.12567713 0 0 0 -0.139889,0.10965 0.12567713,0.12567713 0 0 0 0.109624,0.13989 l 0.820853,0.0995 a 1.5081255,1.5081255 0 0 0 -0.0041,0.0812 1.5081255,1.5081255 0 0 0 1.508126,1.50813 1.5081255,1.5081255 0 0 0 1.508125,-1.50813 1.5081255,1.5081255 0 0 0 -1.508125,-1.50812 z m -4.331148,1.68937 a 0.12567712,0.12567712 0 0 0 -0.07784,0.028 l -0.843043,0.68281 a 1.3007583,1.300758 0 0 0 -0.87434,-0.3398 1.3007583,1.300758 0 0 0 -1.300758,1.30076 1.3007583,1.300758 0 0 0 1.300758,1.30076 1.3007583,1.300758 0 0 0 1.300759,-1.30076 1.3007583,1.300758 0 0 0 -0.257418,-0.77439 l 0.832219,-0.67406 a 0.12567712,0.12567712 0 0 0 0.01858,-0.17676 0.12567712,0.12567712 0 0 0 -0.09892,-0.0466 z" />
      <path d="m 15.672524,251.73018 a 1.5081255,1.5081254 0 0 0 -1.508126,1.50813 1.5081255,1.5081254 0 0 0 0.296741,0.89542 l 0.292273,-0.23672 a 0.20108339,0.20108339 0 0 1 0.282822,0.0297 0.20108339,0.20108339 0 0 1 -0.0297,0.28282 l -0.2651,0.21471 a 1.5081255,1.5081254 0 0 0 0.931091,0.32219 1.5081255,1.5081254 0 0 0 1.444403,-1.07677 l -0.241045,-0.0292 a 0.20108339,0.20108339 0 0 1 -0.175408,-0.22384 0.20108339,0.20108339 0 0 1 0.223814,-0.17541 l 0.254668,0.0309 a 1.5081255,1.5081254 0 0 0 0.0017,-0.0337 1.5081255,1.5081254 0 0 0 -1.508125,-1.50813 z" style="opacity:0.7" />
    </g>
</svg>
