<svg version="1" xmlns="http://www.w3.org/2000/svg" width="933.333" height="933.333" viewBox="0 0 700.000000 700.000000"><path d="M203.5 134.1c-1.6.5-4.3 1.1-5.9 1.3-12.9 2-33 13.8-44.4 26-40.9 43.7-29.1 114 23.8 141.9 6.2 3.3 19.8 8.3 20.4 7.6.2-.2.6-4 1-8.4.9-12.4 5.3-27.9 11.1-39.6 17.5-34.8 51.1-57.8 90-61.6 3.3-.3 6.2-.7 6.4-.9.2-.2-.4-2.7-1.4-5.6-9.9-30.5-35.9-53.4-68.3-60.2-7.2-1.5-27.7-1.8-32.7-.5z"/><path d="M300.4 208.2c-1.5.4-3.1.5-3.6.2-.4-.3-.8-.1-.8.4s-1.2.7-2.6.4c-1.5-.3-2.5-.1-2.1.4.3.5-1.5 1-3.9 1.1-2.5.1-5.2.7-6 1.4-.8.6-1.7.9-2.1.6-.3-.3-1.8 0-3.3.8-1.5.8-3 1.1-3.4.8-.3-.4-.6-.1-.6.5 0 .7-.3 1.1-.7 1-2-.4-9.4 3.3-8.7 4.3.3.5-.2.6-1 .3-.9-.4-1.8.1-2.2 1-.3.9-1 1.3-1.5 1-1.8-1.1-3.1.7-1.7 2.4 1 1.4 1 1.5-.2.4-1.8-1.5-3.4-1.6-2.4 0 .4.7.3.8-.5.4-1.1-.7-4.6 1.8-12.8 8.8-1.2 1-2 2.4-1.6 2.9.3.6.1.7-.5.3-.6-.4-2 .2-3.2 1.4-2.1 2.1-2.7 3.5-1 2.5.6-.3 1-.1 1 .5 0 .7-.6 1-1.4.7-.8-.3-2.3.5-3.5 1.7-2.5 2.7-2.8 4.4-.3 2.5 1.5-1.3 1.6-1.2.3.3-.7 1-1.6 1.6-2 1.3-.9-.5-4.1 3.1-4.1 4.5 0 .6-.4 1-1 1-.5 0-1 .6-1 1.4 0 .8-.4 1.6-.9 1.8-1.8.6-9.1 16.6-8.4 18.4.4 1.1.2 1.5-.4 1.1-1.3-.8-4.2 8-4.6 14.5-.1 1.4-.5 2.4-.9 2.2-.4-.3-.7.4-.7 1.3-1.1 29.3-.4 41.2 2.3 39.6.6-.4.5 0-.2.9-.9 1.2-1 1.8-.2 2.3.6.4.9 1.2.7 1.8-.2.7 0 2 .5 3s1.1 2.6 1.3 3.5c.2.9 1.1 3.5 2.1 5.7s1.8 4.2 1.9 4.5c.3 1.7 5 10 5.7 10 .4 0 .7.4.6.9-.3 1 4 7.1 5 7.1.4 0 2.3-1.4 4.2-3.1 1.9-1.7 4.1-3.4 4.9-3.8.7-.5 1.1-1.4.7-2-.4-.6-1.3-.8-1.9-.5-.7.4-.8.3-.4-.1 1-1.2 3.9-1.6 3.2-.5-.3.5-.1 1.1.5 1.5.5.3 1-.1 1-1 0-1 .5-1.3 1.2-.9.8.5.9.2.5-.9-.3-.9-.3-1.6.1-1.6 1.8.3 3.1-.3 5.8-2.6 1.6-1.4 3.7-2.5 4.8-2.5 1.1 0 1.6-.5 1.3-1.3-.3-.8.1-1.4.9-1.4.7 0 1.1.4.8.9-.3.4.5.8 1.8.8s4.5 1.1 7.2 2.5 4.4 2.5 3.7 2.5c-.7 0-.9.5-.6 1 .5.8 1.2.7 2.3-.2 1.5-1.2 1.6-1.1.3.4-1.1 1.4-1.1 2.1-.1 3.3 1.9 2.3-.6 14.5-3 14.5-.3 0-2.6 1.8-5 4s-4.9 4-5.4 4-.6.3-.3.7c.4.3-.3 1.1-1.6 1.8-1.2.6-2.1 1.7-1.9 2.4.1.7-.2 1-.8.6-1.2-.7-4 1.2-4 2.6 0 1.6 10.8 8.1 12.1 7.3.7-.4 1-.3.5.4-.8 1.3 5.8 4.7 7.3 3.7.7-.4.8 0 .5 1-.4.9-.3 1.5.2 1.4.5-.1 2.3.3 3.9 1 2.8 1.2 9.8 3.2 17.2 5.1 1.8.4 3.4.5 3.7.3.2-.3 1.1-.1 1.8.3.7.5 3.1.9 5.3 1.1 2.2.1 5.9.4 8.3.7 3.1.4 4.1.2 3.5-.7-.4-.8-.1-.8.9.1 1.4 1.1 1.8 1 2.7-.5.9-1.6 1-1.7 1.1-.1 0 1 .6 1.5 1.3 1.3.6-.2 3.2-.6 5.7-.9 6.2-.6 19.3-3.6 20.5-4.7.5-.5 1.7-.9 2.8-.9 1 0 1.6-.3 1.4-.8-.3-.4.9-.8 2.6-.9 1.8-.2 3.8-1 4.4-2 .7-.9 1.3-1.4 1.3-1 0 1 6.3-2.3 7.2-3.7.4-.6.8-.7.8-.2 0 .5.7.3 1.5-.4s1.2-1.7.8-2.3c-.4-.7 0-.8 1.1-.4 1 .4 2.3.1 3-.6.7-.6 2.4-2.1 3.9-3.1 1.4-1.1 2.3-2.4 2-2.9-.4-.6-.1-.7.6-.2.7.4 2-.1 3.2-1.4 1.9-2.1 2.6-3.6 1.1-2.7-.5.3-.9-.1-.9-.9 0-1.1.4-1.2 1.4-.3 1 .8 2.2.3 5-2.6 3.3-3.2 3.3-4.3 0-3.7-.5.1-.6-.3-.2-.8.3-.6 1.3-.7 2.1-.4 1.7.6 6.8-4.3 7.9-7.7.3-1.1 1.1-2 1.6-2s.9-.7.9-1.5.5-1.5 1-1.5c.6 0 1-.5 1-1 0-.6 1.1-2.8 2.4-4.9 1.9-3 2.2-4.1 1.3-5.1-.8-.9-.8-1.1-.1-.7 1.3.8 5.4-7.9 5.4-11.4 0-1.9-.2-2-1.7-.8-.9.8-1.4.9-1 .3.4-.7-.2-1.4-1.3-1.7-1.1-.3-2-.1-2 .4s-.5.9-1.1.9c-.5 0-.7-.6-.3-1.3.5-.7 0-.6-1.1.3-1.1.9-1.6 1-1.1.2s-.1-1.2-2.2-1.2c-1.6 0-4.4-.5-6.3-1.2-3.6-1.2-8.2-5.2-7.2-6.2.4-.3.1-.6-.5-.6-.7 0-1.2.5-1.2 1.2 0 .6-.3.8-.6.5-.4-.4-.1-1.3.6-2.2.7-.8.8-1.5.2-1.5-.8 0-.8-4.9 0-9.2.2-.7-.3-1.2-1-1-.8.1-1.1-.2-.7-.7.3-.6 1.2-.8 2-.5.9.4 1.6-.3 2.1-2 .3-1.4.9-2.5 1.3-2.4 1 .2 6.5-2.5 7.3-3.7.5-.6.8-.5.8.3s.5 1 1.3.5c1.8-1.1 3.8-1.3 3.1-.1-.3.5 0 .8.7.7.8-.1 3 0 4.9.4 1.9.3 5.2.8 7.3 1.1 3.4.4 3.6.3 2.7-1.5-.6-1.1-.7-1.9-.1-1.9.5 0 .6-1.4.1-3.5-.5-2.4-.4-3.5.4-3.5.7 0 .7-.3.1-.8-.5-.4-1.1-2.2-1.3-4.1-.1-1.9-.8-4.1-1.5-5-1-1.2-.9-1.3.2-.6 1 .6 1.2.4.6-.6-.5-.7-1.1-3.2-1.3-5.4-.2-2.2-.8-4.2-1.3-4.3-.5-.2-.9-1.6-.9-3-.1-3-2.3-6.6-3.4-5.5-.4.4-.4 0-.1-.9.7-1.7-2.1-8.7-3.9-10-.6-.4-.7-.8-.3-.8.4 0 .3-.9-.3-2s-1.6-1.7-2.2-1.4c-.7.4-.8.3-.4-.4 1.1-1.8-2.3-6.2-4.2-5.5-1.5.4-1.5.3-.2-.7 1.1-.9 1.2-1.3.3-1.7-.7-.2-1.3-1.1-1.3-1.9 0-.7-.9-1.9-2-2.6-1.1-.7-2-1.8-2-2.5 0-1.6-1.6-1.7-2.5-.3-.8 1.3-3.5-.6-3.5-2.3 0-.6.6-.3 1.3.8 1 1.3 1.6 1.5 2.1.6 1.3-2-19.8-20.1-23.4-20.1-.6 0-1-.5-1-1 0-.6-.5-1-1.1-1-.5 0-.7.6-.3 1.2.4.7-.5 0-2-1.5-1.5-1.6-3.3-2.6-4.1-2.4-.7.3-1.6-.1-1.9-1-.5-1.3-.9-1.3-2.3-.2-1 .9-1.4.9-1 .2.5-.7-.1-1.6-1.3-2.3-1.1-.6-2-.8-2-.4 0 .3-.6.1-1.4-.5-.7-.6-2.5-1.2-4-1.3-1.4-.1-2.6-.6-2.6-1.1 0-.5-.8-.3-1.7.4-1.1 1-1.4 1-.9.1.4-.6.4-1.2-.1-1.3-2.1-.2-4.5-.8-5-1.3-.3-.3-1.5-.1-2.6.5-1.5.9-1.8.8-1.2-.1.6-.9 0-1.1-2.4-.8-1.7.2-3.1.1-3.1-.4 0-.4-.7-.8-1.6-.8-.8 0-1.3.4-1 .8.2.4-.4.8-1.4.8-1 0-1.7-.3-1.4-.7.2-.4-.5-.9-1.6-1.2-2.2-.6-2.6.3-1 1.9.7.7.6 1.1-.4 1.1-.8 0-1.3-.4-1-.8 1.2-1.9-6.2-3.1-11.2-1.7zm8.2 3.2c0 1.9-.3 3.3-.7 3.1-.7-.5-.4-6.5.4-6.5.1 0 .3 1.5.3 3.4zm-6.9-1.8c-.3.3-1.2.4-1.9.1-.8-.3-.5-.6.6-.6 1.1-.1 1.7.2 1.3.5zm3 2.1c-.4.3-.1 1.3.6 2.2 1.1 1.4 1 1.4-.5.2-1.6-1.2-1.6-3.1-.1-3.1.4 0 .3.3 0 .7zm13.7.1c.3.5-.1.9-.9.9s-1.2-.4-.9-.9c.3-.4.7-.8.9-.8.2 0 .6.4.9.8zm11.1.2c-.3.5-1.2 1-1.8 1-.7 0-.6-.4.3-1 1.9-1.2 2.3-1.2 1.5 0zm-32.7 2.5c-.3.3-.9-.2-1.2-1.2-.6-1.4-.5-1.5.5-.6.7.7 1 1.5.7 1.8zm-17.2 1.7c.3.4-.1.5-1 .4-.8-.1-1.8-.5-2.2-.8-.3-.4.1-.5 1-.4.8.1 1.8.5 2.2.8zm9.3-.9c-.2.1-1.3.9-2.4 1.7-1.9 1.4-1.9 1.4-.6-.3.7-.9 1.8-1.7 2.4-1.7.6 0 .8.1.6.3zm23.6 1.7c1 1.1 1.6 2 1.3 2-.3 0-1.3-.9-2.3-2-1-1.1-1.6-2-1.3-2 .3 0 1.3.9 2.3 2zm15.1.8c-1.7 1.6-1.8 1.6-.5-.5.7-1.2 1.5-2 1.8-1.7.3.2-.3 1.2-1.3 2.2zm-34.9-.5c0 .8-.6 1.4-1.4 1.4-.9 0-1-.4-.2-1.4.6-.7 1.2-1.3 1.4-1.3.1 0 .2.6.2 1.3zm-10 2c0 .8-.6 1.4-1.4 1.4-.9 0-1-.4-.2-1.4.6-.7 1.2-1.3 1.4-1.3.1 0 .2.6.2 1.3zm18.3.7c0 .5-.5 1-1.1 1-.5 0-.7-.5-.4-1 .3-.6.8-1 1.1-1 .2 0 .4.4.4 1zm3.5 0c.3.5.1 1-.4 1-.6 0-1.1-.5-1.1-1 0-.6.2-1 .4-1 .3 0 .8.4 1.1 1zm33.5-.4c0 .8-1.9 1.3-2.4.6-.3-.5.1-.9.9-.9s1.5.2 1.5.3zm2.5.4c.3.5.1 1-.4 1-.6 0-1.1-.5-1.1-1 0-.6.2-1 .4-1 .3 0 .8.4 1.1 1zm10.9-.1c-.8.8-3.4 1-3.8.2-.3-.4.6-.7 1.9-.7 1.4 0 2.2.2 1.9.5zm-61.9 2.1c-.3.5-1.2 1-1.8 1-.7 0-.6-.4.3-1 1.9-1.2 2.3-1.2 1.5 0zm27.5.2c0 .4-.4.8-.9.8-.6 0-1.2-.4-1.5-.8-.3-.5.1-.9.9-.9s1.5.4 1.5.9zm-44.4 1.3c-.1.8-.5 1.7-.8 2.1-.5.4-.4-1.6.1-3.4.3-.9.9.1.7 1.3zm61.8 1.5c-.6.6-1 .3-1-1s.4-1.6 1-1c.7.7.7 1.3 0 2zm12.4-.5c-.3.3-.9-.2-1.2-1.2-.6-1.4-.5-1.5.5-.6.7.7 1 1.5.7 1.8zm-82 0c.3.3-.4.4-1.6.2-1.2-.2-2.4-.6-2.8-1-.4-.3.4-.4 1.6-.2 1.2.2 2.5.7 2.8 1zm14.2-.9c0 .8-1.9 1.3-2.4.6-.3-.5.1-.9.9-.9s1.5.2 1.5.3zm4 0c0 .8-1.9 1.3-2.4.6-.3-.5.1-.9.9-.9s1.5.2 1.5.3zm20-.2c0 .2-.7.7-1.6 1-.8.3-1.2.2-.9-.4.6-1 2.5-1.4 2.5-.6zm7 0c0 .2-.8 1-1.7 1.7-1.6 1.3-1.7 1.2-.4-.4 1.3-1.6 2.1-2.1 2.1-1.3zm11 0c0 .2-.7.7-1.6 1-.8.3-1.2.2-.9-.4.6-1 2.5-1.4 2.5-.6zm18 .6c0 .5-.4 1-1 1-.5 0-1-.5-1-1 0-.6.5-1 1-1 .6 0 1 .4 1 1zm12-.6c0 .2-.7.7-1.6 1-.8.3-1.2.2-.9-.4.6-1 2.5-1.4 2.5-.6zm4.5.5c-.9.8-3.6 1-3 .2.2-.4 1.1-.8 2-.8.8 0 1.3.3 1 .6zm-71 5.5c.1 2.1-.4 3.3-1.2 3.3-.7 0-.9-.5-.4-1.1.4-.6.7-2.3.6-3.9-.1-1.5.1-2.5.4-2.2.3.4.6 2.1.6 3.9zm6.7-1.9c1-.2 2 0 2.2.4.3.4-1.1.7-2.9.7-1.9 0-3.2-.2-3-.5.3-.2-.1-1.1-.7-2-1.1-1.4-1-1.4.7 0 1.1.9 2.8 1.5 3.7 1.4zm22.2-1.7c.3.5-.1.9-.9.9s-1.5-.4-1.5-.9c0-.4.4-.8.9-.8.6 0 1.2.4 1.5.8zm17.3 1.7c0 .8-.4 1.5-.9 1.5-1 0-1.1-1.4-.1-2.3.9-1 1-.9 1 .8zm16.4.2c1.3 1.6 1.2 1.7-.3.4-1.7-1.3-2.2-2.1-1.4-2.1.2 0 1 .8 1.7 1.7zm-84.1.2c0 .6-.4 1.2-.8 1.5-.5.3-.9-.1-.9-.9s.4-1.5.9-1.5c.4 0 .8.4.8.9zm11.7.6c0 .8-.4 1.2-.9.9-.4-.3-.8-.9-.8-1.5 0-.5.4-.9.8-.9.5 0 .9.7.9 1.5zm34.3-.5c0 .5-.2 1-.4 1-.3 0-.8-.5-1.1-1-.3-.6-.1-1 .4-1 .6 0 1.1.4 1.1 1zm33.5 0c-.5.8-7.2.7-7.9-.1-.3-.2 1.5-.5 3.9-.5s4.2.3 4 .6zm11.6.7c1.3 1.6 1.2 1.7-.3.4-1.7-1.3-2.2-2.1-1.4-2.1.2 0 1 .8 1.7 1.7zm5.9-1.3c0 .2-.8 1-1.7 1.7-1.6 1.3-1.7 1.2-.4-.4 1.3-1.6 2.1-2.1 2.1-1.3zm-54.5 2.6c.3.6-.1.7-.9.4-1.8-.7-2.1-1.4-.7-1.4.6 0 1.3.4 1.6 1zm-46.8 1.5c0 .8-.4 1.5-.9 1.5-1 0-1.1-1.4-.1-2.3.9-1 1-.9 1 .8zm35.1.2c-.8 1-1.4 3-1.3 4.6.1 1.5-.1 2.5-.4 2.2-.8-.9-.8-7.5 0-6.9.4.2 1 0 1.4-.6.3-.5.9-1 1.2-1 .3 0-.1.8-.9 1.7zm47.9.1c-1 1-1.6 2.1-1.5 2.3.2.2.1.3-.1.1-.3-.1-.6-.9-.7-1.7-.1-.8.2-1.3.6-1 .5.3 1.1.1 1.5-.5.3-.5.9-1 1.2-1 .3 0-.1.8-1 1.8zm-15.2 1c-.3.3-1.1 0-1.8-.7-.9-1-.8-1.1.6-.5 1 .3 1.5.9 1.2 1.2zm27-.9c-.9.8-3.6 1-3 .2.2-.4 1.1-.8 2-.8.8 0 1.3.3 1 .6zm23.1 3.7c.1.9 0 1.3-.4 1-.3-.4-.7-1.4-.8-2.2-.1-.9 0-1.3.4-1 .3.4.7 1.4.8 2.2zm-104.3-.1c-.3.9-.8 1.4-1 1.1-.3-.3-.2-.9.2-1.5.9-1.6 1.5-1.3.8.4zm10.8.2c1.3 1.6 1.2 1.7-.3.4-1-.7-1.8-1.5-1.8-1.7 0-.8.8-.3 2.1 1.3zm19.9.4c0 .5-.4.9-.8.9-.5 0-.9-.7-.9-1.5s.4-1.2.9-.9c.4.3.8.9.8 1.5zm50.3-.7c1.1-.1 1.6 0 1.3.4-1.3 1.2-3.6 1-4.8-.6-1.1-1.5-1.1-1.5.2-.6.8.6 2.3 1 3.3.8zm15 .1c-.3.9-.8 1.4-1 1.1-.3-.3-.2-.9.2-1.5.9-1.6 1.5-1.3.8.4zm-122.8.5c-.3.5-1.2 1-1.8 1-.7 0-.6-.4.3-1 1.9-1.2 2.3-1.2 1.5 0zm3 0c.3.5.1 1-.4 1-.6 0-1.1-.5-1.1-1 0-.6.2-1 .4-1 .3 0 .8.4 1.1 1zm13.9-.1c-.7.8-5.4.9-5.9.2-.2-.4 1.2-.7 3-.7 1.9 0 3.2.3 2.9.5zm6.6.1c0 .5-.2 1-.4 1-.3 0-.8-.5-1.1-1-.3-.6-.1-1 .4-1 .6 0 1.1.4 1.1 1zm19.5-.2c-.3.3.1 1.2.7 2.1 1 1.2.7 1.2-.8-.2-1.1-.9-2.4-1.4-2.9-1-.4.5-.5.3-.2-.3s1.3-1.1 2.2-1.1c.8 0 1.3.3 1 .5zm20 .9c-.1 1 .3 2.5.9 3.3.9 1.3.9 1.3-.6.2-1.3-1-1.6-2.6-.9-5 .4-1.1.9.2.6 1.5zm16.5-.7c0 .5-.5 1-1.1 1-.5 0-.7-.5-.4-1 .3-.6.8-1 1.1-1 .2 0 .4.4.4 1zm3.5 0c.3.5.1 1-.4 1-.6 0-1.1-.5-1.1-1 0-.6.2-1 .4-1 .3 0 .8.4 1.1 1zm29.6.7c1.3 1.6 1.2 1.7-.3.4-1-.7-1.8-1.5-1.8-1.7 0-.8.8-.3 2.1 1.3zm6.9-.7c0 .5-.2 1-.4 1-.3 0-.8-.5-1.1-1-.3-.6-.1-1 .4-1 .6 0 1.1.4 1.1 1zm-24 .4c0 .2-.8 1-1.7 1.7-1.6 1.3-1.7 1.2-.4-.4 1.3-1.6 2.1-2.1 2.1-1.3zm-36.8 2.8c-1.4 1.4-4.4 2-3.6.7.3-.5 1-.7 1.5-.4.5.4 1.2-.1 1.5-1 .4-.9.9-1.3 1.2-1 .3.3 0 1.1-.6 1.7zm9.2-1c-.3.4-.9.8-1.5.8-.5 0-.9-.4-.9-.8 0-.5.7-.9 1.5-.9s1.2.4.9.9zm-51.1 1.3c-.3.9-.8 1.4-1 1.1-.3-.3-.2-.9.2-1.5.9-1.6 1.5-1.3.8.4zm-14.3.6c1.2.9 1.2 1-.4.5-1.1-.4-2.7.1-4 1.1l-2.1 1.8 1.9-2.3c2.2-2.5 2.5-2.6 4.6-1.1zm23.7.1c1.1 1.9 1.3 3.9.2 3.2-.5-.3-.7-.9-.4-1.4 1.1-1.8-1.7-2.1-3.8-.3l-2.2 1.8 1.9-2.3c2.2-2.5 3.1-2.7 4.3-1zm16.3-.8c0 .2-.8 1-1.7 1.7-1.6 1.3-1.7 1.2-.4-.4 1.3-1.6 2.1-2.1 2.1-1.3zm27.6 2.4c-1.7 1.6-1.8 1.6-.5-.5.7-1.2 1.5-2 1.8-1.7.3.2-.3 1.2-1.3 2.2zm4.3-1.4c.9 1.1.9 1.6-.1 2.2-.7.4-1 .4-.6-.1.4-.4.3-1.4-.3-2.2-.6-.7-.9-1.3-.6-1.3.2 0 1 .6 1.6 1.4zm7.1-.4c0 .5-.4 1-1 1-.5 0-1-.5-1-1 0-.6.5-1 1-1 .6 0 1 .4 1 1zm25.4.6c.3.8.2 1.2-.4.9-.6-.3-1-1-1-1.6 0-1.4.7-1.1 1.4.7zm4.7-.2c-.4.6-.7 2.3-.6 3.9.1 1.5-.1 2.5-.4 2.2-1.2-1.2-.7-7.2.6-7.2.7 0 .9.5.4 1.1zm9.9-.6c0 .5-.7.9-1.5.9s-1.2-.4-.9-.9c.3-.4.9-.8 1.5-.8.5 0 .9.4.9.8zm5.4 0c.3.5-.1.9-.9.9s-1.2-.4-.9-.9c.3-.4.7-.8.9-.8.2 0 .6.4.9.8zm-131.9 1.1c.3.5.2 1.2-.3 1.5-.5.3-.9-.1-.9-.9 0-1.7.3-1.9 1.2-.6zm140.1 2.5c0 1.9-.3 3.3-.7 3.1-.7-.5-.4-6.5.4-6.5.1 0 .3 1.5.3 3.4zm-127.2-1.6c.3.5-.1.9-.9.9s-1.5-.4-1.5-.9c0-.4.4-.8.9-.8.6 0 1.2.4 1.5.8zm43.6-.2c0 .8-1.9 1.3-2.4.6-.3-.5.1-.9.9-.9s1.5.2 1.5.3zm43.5 2.1c-.1 1.6.2 3.3.6 3.9.5.6.3 1.1-.4 1.1-.9 0-1.3-1.2-1.1-3.6.2-3.9.2-4.1.7-4.1.2 0 .3 1.2.2 2.7zm20.9-1.9c.3.5-.1.9-.9.9s-1.5-.4-1.5-.9c0-.4.4-.8.9-.8.6 0 1.2.4 1.5.8zm-78.4.6c0 .2-.8 1-1.7 1.7-1.6 1.3-1.7 1.2-.4-.4 1.3-1.6 2.1-2.1 2.1-1.3zm52 1.7c0 .5-.4.9-.8.9-.5 0-.9-.7-.9-1.5s.4-1.2.9-.9c.4.3.8.9.8 1.5zm36.1-.4c1.3 1.6 1.2 1.7-.3.4-1.7-1.3-2.2-2.1-1.4-2.1.2 0 1 .8 1.7 1.7zm-95.1-.3c0 .2-.8 1-1.7 1.7-1.6 1.3-1.7 1.2-.4-.4 1.3-1.6 2.1-2.1 2.1-1.3zm12 4.2c-1.1 1.8-1.1 1.8-.6 0 .4-1 .1-2.6-.6-3.5-1.1-1.4-1-1.4.6 0 1.5 1.4 1.6 2 .6 3.5zm4.5-3.6c.3.5.1 1-.4 1-.6 0-1.1-.5-1.1-1 0-.6.2-1 .4-1 .3 0 .8.4 1.1 1zm35.9.1c.3.3-1 .5-2.9.4-1.8 0-3.6-.3-3.9-.6-.3-.3 1-.5 2.9-.4 1.8 0 3.6.3 3.9.6zm22.6-.2c0 .6-.4 1.2-.8 1.5-.5.3-.9-.1-.9-.9s.4-1.5.9-1.5c.4 0 .8.4.8.9zm25.5-.1c-.3.3.1 1.2.7 2.1 1 1.2.7 1.2-.8-.2-1.1-.9-2.4-1.4-2.9-1-.4.5-.5.3-.2-.3s1.3-1.1 2.2-1.1c.8 0 1.3.3 1 .5zm-115.5.6c0 .2-.8 1-1.7 1.7-1.6 1.3-1.7 1.2-.4-.4 1.3-1.6 2.1-2.1 2.1-1.3zm35.3 1.1c-.3.9-.8 1.4-1 1.1-.3-.3-.2-.9.2-1.5.9-1.6 1.5-1.3.8.4zm72.3 1c0 1.4-.4 2.5-.8 2.5-.6 0-.5-2.5.1-4.8.3-1 .7.2.7 2.3zm-131.2-.3c-.3.4-.9.8-1.5.8-.5 0-.9-.4-.9-.8 0-.5.7-.9 1.5-.9s1.2.4.9.9zm7.2 2.3c-.1.8-.5 1.7-.8 2.1-.4.3-.5-.2-.4-1.3.2-1-.2-2.5-.8-3.3-.9-1.3-.9-1.3.6-.2.9.7 1.5 1.9 1.4 2.7zm12.4-2.9c0 .8-1.9 1.3-2.4.6-.3-.5.1-.9.9-.9s1.5.2 1.5.3zm11.1 1.1c1.3 1.6 1.2 1.7-.3.4-1.7-1.3-2.2-2.1-1.4-2.1.2 0 1 .8 1.7 1.7zm96.9-.5c0 .4-.4.8-.9.8-.6 0-1.2-.4-1.5-.8-.3-.5.1-.9.9-.9s1.5.4 1.5.9zm-72.3 1.3c0 .8-.4 1.2-.9.9-.5-.3-.6-1-.3-1.5.9-1.3 1.2-1.1 1.2.6zm30.1 1c-.3.3-.9-.2-1.2-1.2-.6-1.4-.5-1.5.5-.6.7.7 1 1.5.7 1.8zm13.5-1c-.3.9-.8 1.4-1 1.1-.3-.3-.2-.9.2-1.5.9-1.6 1.5-1.3.8.4zm10.7-1.1c0 .2-.8 1-1.7 1.7-1.6 1.3-1.7 1.2-.4-.4 1.3-1.6 2.1-2.1 2.1-1.3zm40 0c0 .2-.8 1-1.7 1.7-1.6 1.3-1.7 1.2-.4-.4 1.3-1.6 2.1-2.1 2.1-1.3zm-134.5 5.1c.1 1.9-.1 3.2-.4 2.9-.3-.3-.6-2.1-.6-3.9-.1-1.9.1-3.2.4-2.9.3.3.6 2.1.6 3.9zm21.6-2.2c-1 .9-1.1.8-.5-.6.3-1 .9-1.5 1.2-1.2.3.3 0 1.1-.7 1.8zm4.4-.5c-.3.3-1.1 0-1.8-.7-.9-1-.8-1.1.6-.5 1 .3 1.5.9 1.2 1.2zm48.5-1.4c0 .2-.7.7-1.6 1-.8.3-1.2.2-.9-.4.6-1 2.5-1.4 2.5-.6zm46.1 2.3c1.3 1.6 1.2 1.7-.3.4-1.7-1.3-2.2-2.1-1.4-2.1.2 0 1 .8 1.7 1.7zm-140.7.9c.3.8.2 1.2-.4.9-.6-.3-1-1-1-1.6 0-1.4.7-1.1 1.4.7zm28.2 1.8c-.2 3.8-1.2 3.9-1.2.1 0-1.8.3-3.2.7-3 .3.3.5 1.5.5 2.9zm5.7-.9c.4-.3.5-.2.2.2s-1.3.8-2.1.9c-.9.1-1.3 0-1-.3.3-.4 0-1.3-.6-2.2-1-1.2-.7-1.2.8.2 1.1.9 2.4 1.5 2.7 1.2zm35.1-1.7c.3.5-.1.9-.9.9s-1.5-.4-1.5-.9c0-.4.4-.8.9-.8.6 0 1.2.4 1.5.8zm7.2 2.6c-.2 3.8-1.2 3.9-1.2.1 0-1.8.3-3.2.7-3 .3.3.5 1.5.5 2.9zm6.6-.9c.9-.2 2.3.4 3 1.3 1.1 1.5 1.1 1.5-.2.6-.8-.6-2.7-1-4.3-.9-1.5.1-2.5 0-2.2-.3.3-.3-.1-1.2-.7-2.1-1.1-1.4-1-1.4.7 0 1.1.9 2.8 1.5 3.7 1.4zm66.8-2.1c0 .2-.8 1-1.7 1.7-1.6 1.3-1.7 1.2-.4-.4 1.3-1.6 2.1-2.1 2.1-1.3zm-58.9 2.3c1.3 1.6 1.2 1.7-.3.4-1.7-1.3-2.2-2.1-1.4-2.1.2 0 1 .8 1.7 1.7zm19.9-1.3c0 .2-.8 1-1.7 1.7-1.6 1.3-1.7 1.2-.4-.4 1.3-1.6 2.1-2.1 2.1-1.3zm45.3 1.1c1.5-.1 2.5.1 2.2.4-1.2 1.2-7.2.7-7.2-.6 0-.7.5-.9 1.1-.4.6.4 2.3.7 3.9.6zM229 252c0 .5-.2 1-.4 1-.3 0-.8-.5-1.1-1-.3-.6-.1-1 .4-1 .6 0 1.1.4 1.1 1zm41.1.7c1.3 1.6 1.2 1.7-.3.4-1.7-1.3-2.2-2.1-1.4-2.1.2 0 1 .8 1.7 1.7zm10.3-.8c-.7.8-5.4.9-4.9.1.2-.3 1.5-.6 2.9-.6s2.3.2 2 .5zm6.6 0c0 .6-.4 1.2-.8 1.5-.5.3-.9-.1-.9-.9s.4-1.5.9-1.5c.4 0 .8.4.8.9zm43.1.8c1.3 1.6 1.2 1.7-.3.4-1.7-1.3-2.2-2.1-1.4-2.1.2 0 1 .8 1.7 1.7zm8.5-.5c.3.4-.2.5-1.3.4-1-.2-2.5.2-3.3.8-1.3.9-1.3.9-.2-.6 1.2-1.6 3.5-1.8 4.8-.6zm17.9-.2c.3.5.1 1-.4 1-.6 0-1.1-.5-1.1-1 0-.6.2-1 .4-1 .3 0 .8.4 1.1 1zm-111.4 1.7c1.3 1.6 1.2 1.7-.3.4-1-.7-1.8-1.5-1.8-1.7 0-.8.8-.3 2.1 1.3zm4.4.3c.3.6-.1.7-.9.4-1.8-.7-2.1-1.4-.7-1.4.6 0 1.3.4 1.6 1zm55-.2c-.3.3.2 1.4 1.2 2.4 2.4 2.7 1 2.2-1.5-.5-1.7-1.8-1.9-2.4-.7-2.4.8 0 1.3.3 1 .5zm69.5-.4c0 .2-.8 1-1.7 1.7-1.6 1.3-1.7 1.2-.4-.4 1.3-1.6 2.1-2.1 2.1-1.3zm4.2 2.1c.2-.3.5.2.5 1 0 1.9 0 1.9-2.3-.7-1.2-1.4-1.3-1.8-.3-1 .9.6 1.8 1 2.1.7zm-137.8 1.1c.3.8.2 1.2-.4.9-.6-.3-1-1-1-1.6 0-1.4.7-1.1 1.4.7zm87.1-.6c-.3.5-1.2 1-1.8 1-.7 0-.6-.4.3-1 1.9-1.2 2.3-1.2 1.5 0zm2.9.6c.3.8.2 1.2-.4.9-.6-.3-1-1-1-1.6 0-1.4.7-1.1 1.4.7zm26.1 1.8c-.1 4.9-1 5.3-1.1.5-.1-2.1.2-3.9.6-3.9.3 0 .6 1.5.5 3.4zm30.5-3c0 .2-.7.7-1.6 1-.8.3-1.2.2-.9-.4.6-1 2.5-1.4 2.5-.6zm-102.4 4c-.2 3.8-1.2 3.9-1.2.1 0-1.8.3-3.2.7-3 .3.3.5 1.5.5 2.9zm-12.1-1.5c.3.5.2 1.2-.3 1.5-.5.3-.9-.1-.9-.9 0-1.7.3-1.9 1.2-.6zm8.5-.1c0 .5-.7.9-1.5.9s-1.2-.4-.9-.9c.3-.4.9-.8 1.5-.8.5 0 .9.4.9.8zm72 0c0 .5-.7.9-1.5.9s-1.2-.4-.9-.9c.3-.4.9-.8 1.5-.8.5 0 .9.4.9.8zm-90 2.3c0 .5-.4.9-.8.9-.5 0-.9-.7-.9-1.5s.4-1.2.9-.9c.4.3.8.9.8 1.5zm32-1.7c0 .2-.8 1-1.7 1.7-1.6 1.3-1.7 1.2-.4-.4 1.3-1.6 2.1-2.1 2.1-1.3zm16 1.7c0 .5-.4.9-.8.9-.5 0-.9-.7-.9-1.5s.4-1.2.9-.9c.4.3.8.9.8 1.5zm24 0c0 .5-.4.9-.8.9-.5 0-.9-.7-.9-1.5s.4-1.2.9-.9c.4.3.8.9.8 1.5zm32-1.7c0 .2-.8 1-1.7 1.7-1.6 1.3-1.7 1.2-.4-.4 1.3-1.6 2.1-2.1 2.1-1.3zm16 1.7c0 .5-.4.9-.8.9-.5 0-.9-.7-.9-1.5s.4-1.2.9-.9c.4.3.8.9.8 1.5zm-160-.2c0 .6-.4 1.2-.8 1.5-.5.3-.9-.1-.9-.9s.4-1.5.9-1.5c.4 0 .8.4.8.9zm5.5.8c-.1 1 .1 2.3.6 2.9.5.6.4 1.1-.5 1.1-1 0-1.5-3.5-.7-5.5.4-1 .9.1.6 1.5zm10.5-.8c0 .6-.4 1.2-.8 1.5-.5.3-.9-.1-.9-.9s.4-1.5.9-1.5c.4 0 .8.4.8.9zm11.7.6c0 .8-.4 1.2-.9.9-.4-.3-.8-.9-.8-1.5 0-.5.4-.9.8-.9.5 0 .9.7.9 1.5zm5.7-.7c.3.5-.1.9-.9.9s-1.2-.4-.9-.9c.3-.4.7-.8.9-.8.2 0 .6.4.9.8zm33.8.3c.2.2.1.3-.1.1-.2-.1-1.4.6-2.5 1.5-1.5 1.4-1.8 1.4-.8.2.6-.9.9-1.8.6-2.2-.3-.3.1-.4 1-.3.8.1 1.7.4 1.8.7zm14.3 0c.3.3-.6.5-1.9.5-1.4-.1-2.8-.4-3.1-.7-.3-.3.6-.5 1.9-.5 1.4.1 2.8.4 3.1.7zm23.9 0c.3.3-1 .5-2.9.4-1.8 0-3.6-.3-3.9-.6-.3-.3 1-.5 2.9-.4 1.8 0 3.6.3 3.9.6zm33.8 0c.2.2.1.3-.1.1-.2-.1-1.4.6-2.5 1.5-1.5 1.4-1.8 1.4-.8.2.6-.9.9-1.8.6-2.2-.3-.3.1-.4 1-.3.8.1 1.7.4 1.8.7zm14.3 0c.3.3-.6.5-1.9.5-1.4-.1-2.8-.4-3.1-.7-.3-.3.6-.5 1.9-.5 1.4.1 2.8.4 3.1.7zm-99.1 2.1c-.3.4-.9.8-1.5.8-.5 0-.9-.4-.9-.8 0-.5.7-.9 1.5-.9s1.2.4.9.9zm72 0c-.3.4-.9.8-1.5.8-.5 0-.9-.4-.9-.8 0-.5.7-.9 1.5-.9s1.2.4.9.9zm48 0c-.3.4-.9.8-1.5.8-.5 0-.9-.4-.9-.8 0-.5.7-.9 1.5-.9s1.2.4.9.9zm-162.4.2c0 .2-.8 1-1.7 1.7-1.6 1.3-1.7 1.2-.4-.4 1.3-1.6 2.1-2.1 2.1-1.3zm21.9 2.3c.2.1-.5.1-1.6 0-1.1 0-2-.7-2-1.4 0-1 .4-1 1.6-.1.9.7 1.8 1.3 2 1.5zm41.9-.2c-.3.3-.9-.2-1.2-1.2-.6-1.4-.5-1.5.5-.6.7.7 1 1.5.7 1.8zm24 0c-.3.3-.9-.2-1.2-1.2-.6-1.4-.5-1.5.5-.6.7.7 1 1.5.7 1.8zm48 0c-.3.3-.9-.2-1.2-1.2-.6-1.4-.5-1.5.5-.6.7.7 1 1.5.7 1.8zm-124.4.1c.3.8.2 1.2-.4.9-.6-.3-1-1-1-1.6 0-1.4.7-1.1 1.4.7zm21.1-.6c-.3.5-1.2 1-1.8 1-.7 0-.6-.4.3-1 1.9-1.2 2.3-1.2 1.5 0zm22.6.7c1.3 1.6 1.2 1.7-.3.4-1.7-1.3-2.2-2.1-1.4-2.1.2 0 1 .8 1.7 1.7zm25.4-.7c-.3.5-1.2 1-1.8 1-.7 0-.6-.4.3-1 1.9-1.2 2.3-1.2 1.5 0zm19.4 4.4c-2.3 2.1-2.3 2.1-.6 0 1-1.2 1.5-2.9 1.1-4-.5-1.8-.5-1.8.6 0 1 1.5.8 2.2-1.1 4zm5.6-4.4c.3.5.1 1-.4 1-.6 0-1.1-.5-1.1-1 0-.6.2-1 .4-1 .3 0 .8.4 1.1 1zm34.5-.6c0 .2-.7.7-1.6 1-.8.3-1.2.2-.9-.4.6-1 2.5-1.4 2.5-.6zm8.4 4.5c-1.6 1.4-1.7 1.4-.6 0 .7-.9 1-2.5.6-3.5-.5-1.8-.5-1.8.6 0 1 1.5.9 2.1-.6 3.5zm5.1-3.9c.3.5.1 1-.4 1-.6 0-1.1-.5-1.1-1 0-.6.2-1 .4-1 .3 0 .8.4 1.1 1zm-23.5.4c0 .2-.8 1-1.7 1.7-1.6 1.3-1.7 1.2-.4-.4 1.3-1.6 2.1-2.1 2.1-1.3zm-20.6 2.2c.3.8.2 1.2-.4.9-.6-.3-1-1-1-1.6 0-1.4.7-1.1 1.4.7zm11.7.1c1.3 1.6 1.2 1.7-.3.4-1.7-1.3-2.2-2.1-1.4-2.1.2 0 1 .8 1.7 1.7zm36.3-.1c.3.8.2 1.2-.4.9-.6-.3-1-1-1-1.6 0-1.4.7-1.1 1.4.7zm-161.4-.2c0 .2-.8 1-1.7 1.7-1.6 1.3-1.7 1.2-.4-.4 1.3-1.6 2.1-2.1 2.1-1.3zm9.8 2.1c-.3.3-.9-.2-1.2-1.2-.6-1.4-.5-1.5.5-.6.7.7 1 1.5.7 1.8zm54.3-.8c1.3 1.6 1.2 1.7-.3.4-1.7-1.3-2.2-2.1-1.4-2.1.2 0 1 .8 1.7 1.7zm28 0c1.3 1.6 1.2 1.7-.3.4-1.7-1.3-2.2-2.1-1.4-2.1.2 0 1 .8 1.7 1.7zm48 0c1.3 1.6 1.2 1.7-.3.4-1.7-1.3-2.2-2.1-1.4-2.1.2 0 1 .8 1.7 1.7zm-126.6.3c.3.5.1 1-.4 1-.6 0-1.1-.5-1.1-1 0-.6.2-1 .4-1 .3 0 .8.4 1.1 1zm10.9-.1c-.7.8-5.4.9-5.9.2-.2-.4 1.2-.7 3-.7 1.9 0 3.2.3 2.9.5zm9.6.1c0 .5-.5 1-1.1 1-.5 0-.7-.5-.4-1 .3-.6.8-1 1.1-1 .2 0 .4.4.4 1zm3.5 0c.3.5.1 1-.4 1-.6 0-1.1-.5-1.1-1 0-.6.2-1 .4-1 .3 0 .8.4 1.1 1zm16.5 0c0 .5-.5 1-1.1 1-.5 0-.7-.5-.4-1 .3-.6.8-1 1.1-1 .2 0 .4.4.4 1zm4.1.4c-.6.7-.9 2.2-.5 3.2.5 1.8.5 1.8-.6.1-.9-1.4-.9-2.2 0-3.3.7-.7 1.5-1.4 1.7-1.4.3 0 0 .6-.6 1.4zm23.9-.4c0 .5-.5 1-1.1 1-.5 0-.7-.5-.4-1 .3-.6.8-1 1.1-1 .2 0 .4.4.4 1zm4-.6c0 .3-.4.8-1 1.1-.5.3-1 .1-1-.4 0-.6.5-1.1 1-1.1.6 0 1 .2 1 .4zm13.3 1.6c1 1.2.9 1.2-.3.3-.8-.6-2.3-.9-3.3-.8-.9.2-1.5 0-1.2-.5.7-1.2 3.3-.6 4.8 1zm10.7-1c0 .5-.2 1-.4 1-.3 0-.8-.5-1.1-1-.3-.6-.1-1 .4-1 .6 0 1.1.4 1.1 1zm37.1.7c1.3 1.6 1.2 1.7-.3.4-1.7-1.3-2.2-2.1-1.4-2.1.2 0 1 .8 1.7 1.7zm10.9-1.3c0 .3-.4.8-1 1.1-.5.3-1 .1-1-.4 0-.6.5-1.1 1-1.1.6 0 1 .2 1 .4zm-87.9 2.3c1.3 1.6 1.2 1.7-.3.4-1.7-1.3-2.2-2.1-1.4-2.1.2 0 1 .8 1.7 1.7zm67.5-.2c-.1.8-.8 2.1-1.4 2.7-1 1-1.7.7-3.5-1.2l-2.2-2.4 2.3 1.8c2.1 1.8 3.5 1.6 3.8-.5.2-1.5.4-1.9.8-1.9.2 0 .3.7.2 1.5zm-146.6-.1c0 .2-.8 1-1.7 1.7-1.6 1.3-1.7 1.2-.4-.4 1.3-1.6 2.1-2.1 2.1-1.3zm2.7.3c-.4.3-.2 1.1.3 1.8.7.8.5 1.2-.4 1.2-.8 0-1.2-.7-1.1-1.6.5-2.2.4-2.1 1.2-2.1.3 0 .3.3 0 .7zm167.7.1c.3.5-.1.9-.9.9s-1.2-.4-.9-.9c.3-.4.7-.8.9-.8.2 0 .6.4.9.8zm-140.2 1.7c.3-.3.4.7.3 2.2-.1 1.6.3 3.5.9 4.3.9 1.3.9 1.3-.6.2-.9-.7-1.5-2.1-1.3-3 .1-.9-.5-2.6-1.4-3.7-1.4-1.7-1.4-1.8 0-.7.9.6 1.8 1 2.1.7zm130.9.2c1.3 1.6 1.2 1.7-.3.4-1.7-1.3-2.2-2.1-1.4-2.1.2 0 1 .8 1.7 1.7zm-166.1-.3c0 .2-.7.7-1.6 1-.8.3-1.2.2-.9-.4.6-1 2.5-1.4 2.5-.6zm27.1 1.3c1.2 1.6 1.2 1.7-.2.6-.9-.7-1.9-1-2.2-.6-.4.3-.7.1-.7-.5 0-1.7 1.6-1.5 3.1.5zm24.5.5l1.9 2.3-2.1-1.8c-1.3-1-2.9-1.5-4-1.1-1.6.5-1.6.4-.4-.5 2.1-1.5 2.4-1.4 4.6 1.1zm4.5-.9c-.6.8-.7 1.8-.3 2.2.4.5.1.5-.6.1-1-.6-1-1.1-.1-2.2.6-.8 1.4-1.4 1.6-1.4.3 0 0 .6-.6 1.3zm11.9-.3c0 .5-.2 1-.4 1-.3 0-.8-.5-1.1-1-.3-.6-.1-1 .4-1 .6 0 1.1.4 1.1 1zm30-.2c0 .5-.7.9-1.5.9s-1.2-.4-.9-.9c.3-.4.9-.8 1.5-.8.5 0 .9.4.9.8zm12.5.2c-.3.5-1.2 1-1.8 1-.7 0-.6-.4.3-1 1.9-1.2 2.3-1.2 1.5 0zm8.6.7c1.2 1.6 1.2 1.7-.2.6-.9-.7-2-.9-2.4-.5-.5.4-.5.1-.1-.6.9-1.6 1.1-1.5 2.7.5zm22.3-.1c.3.8.2 1.2-.4.9-.6-.3-1-1-1-1.6 0-1.4.7-1.1 1.4.7zm41.4-.3c.6.5 1.2 1.4 1.2 2 0 .7-.5.4-1.1-.6-.6-.9-1.4-1.5-1.9-1.2-.5.3-1.1.1-1.4-.4-.7-1.1 1.3-.9 3.2.2zm-150.8.1c0 .2-.8 1-1.7 1.7-1.6 1.3-1.7 1.2-.4-.4 1.3-1.6 2.1-2.1 2.1-1.3zm-8.5 1.5c.3.5.2 1.2-.3 1.5-.5.3-.9-.1-.9-.9 0-1.7.3-1.9 1.2-.6zm20.5-.1c0 .5-.7.9-1.5.9s-1.2-.4-.9-.9c.3-.4.9-.8 1.5-.8.5 0 .9.4.9.8zm124.1.5c-.6.8-.8 1.6-.5 2 .3.3-.1.4-1 .3-.8-.1-1.9-.6-2.3-1.1-.4-.4-.3-.5.3-.2.7.4 1.7 0 2.4-.8s1.5-1.5 1.7-1.5c.3 0 0 .6-.6 1.3zm3.4 1.4c-.1 1.6.2 3.3.6 3.9.5.6.3 1.1-.4 1.1-.9 0-1.3-1.2-1.1-3.6.2-3.9.2-4.1.7-4.1.2 0 .3 1.2.2 2.7zM227 274.4c0 .2-.8 1-1.7 1.7-1.6 1.3-1.7 1.2-.4-.4 1.3-1.6 2.1-2.1 2.1-1.3zm79.7 1.1c0 .8-.4 1.5-.9 1.5-1 0-1.1-1.4-.1-2.3.9-1 1-.9 1 .8zm-72.3.4c-.8.8-3.4 1-3.8.2-.3-.4.6-.7 1.9-.7 1.4 0 2.2.2 1.9.5zm3.7.8c1.3 1.6 1.2 1.7-.3.4-1-.7-1.8-1.5-1.8-1.7 0-.8.8-.3 2.1 1.3zm40 0c1.3 1.6 1.2 1.7-.3.4-1.7-1.3-2.2-2.1-1.4-2.1.2 0 1 .8 1.7 1.7zm12.6-.2c0 .8-.4 1.2-.9.9-.4-.3-.8-.9-.8-1.5 0-.5.4-.9.8-.9.5 0 .9.7.9 1.5zm9.9 1.9c0 1.3-.5 2.3-1.2 2.3-.9 0-1-.5-.5-1.1.5-.6.7-1.9.5-2.9-.1-1.1 0-1.6.4-1.2.3.3.7 1.6.8 2.9zm17.9-2.4c-.5.8-7.2.7-7.9-.1-.3-.2 1.5-.5 3.9-.5s4.2.3 4 .6zm10.2.7c0 .8-.5.9-1.1.4-.6-.4-2.3-.7-3.8-.6-1.5.1-2.5-.1-2.3-.4.7-1.3 7.2-.7 7.2.6zm18-.2c0 .8-.4 1.2-.9.9-.4-.3-.8-.9-.8-1.5 0-.5.4-.9.8-.9.5 0 .9.7.9 1.5zm11.7-.4c.3.2-1.5.5-3.9.5s-4.2-.3-4-.6c.5-.8 7.2-.7 7.9.1zm6.6-.1c0 .5-.5 1-1.1 1-.5 0-.7-.5-.4-1 .3-.6.8-1 1.1-1 .2 0 .4.4.4 1zm3.4.6c.3.8.2 1.2-.4.9-.6-.3-1-1-1-1.6 0-1.4.7-1.1 1.4.7zm11.6-1.2c0 .2-.8 1-1.7 1.7-1.6 1.3-1.7 1.2-.4-.4 1.3-1.6 2.1-2.1 2.1-1.3zm19 .5c0 .6-.4 1.2-.8 1.5-.5.3-.9-.1-.9-.9s.4-1.5.9-1.5c.4 0 .8.4.8.9zm-178 .5c0 .2-.8 1-1.7 1.7-1.6 1.3-1.7 1.2-.4-.4 1.3-1.6 2.1-2.1 2.1-1.3zm112 0c0 .2-.8 1-1.7 1.7-1.6 1.3-1.7 1.2-.4-.4 1.3-1.6 2.1-2.1 2.1-1.3zm-87 1c0 .2-.8 1-1.7 1.7-1.6 1.3-1.7 1.2-.4-.4 1.3-1.6 2.1-2.1 2.1-1.3zm12 .2c0 .8-1.9 1.3-2.4.6-.3-.5.1-.9.9-.9s1.5.2 1.5.3zm11.3.6c-.6.7-.9 2.1-.8 3.1.2.9 0 1.5-.5 1.2-1.3-.8.1-5.5 1.7-5.5.3 0 .1.6-.4 1.2zm35.7 2.3c0 .5-.5.3-1-.5s-1-2-1-2.5c0-.6.5-.3 1 .5s1 1.9 1 2.5zm-9.9-.8c1.3 1.6 1.2 1.7-.3.4-1-.7-1.8-1.5-1.8-1.7 0-.8.8-.3 2.1 1.3zm23.2-.2c-.3.9-.8 1.4-1 1.1-.3-.3-.2-.9.2-1.5.9-1.6 1.5-1.3.8.4zm32.7.6c0 .5-.4.9-.8.9-.5 0-.9-.7-.9-1.5s.4-1.2.9-.9c.4.3.8.9.8 1.5zm44-1.7c0 .2-.8 1-1.7 1.7-1.6 1.3-1.7 1.2-.4-.4 1.3-1.6 2.1-2.1 2.1-1.3zm-156.6 2.2c.3.8.2 1.2-.4.9-.6-.3-1-1-1-1.6 0-1.4.7-1.1 1.4.7zm22.1 1.8c0 1.9-.3 3.7-.6 4-.4.5-.4-6.2 0-7.2s.7.4.6 3.2zm16.6-2c-.4.6-.7 2.3-.6 3.9.1 1.5-.1 2.5-.4 2.2-1.2-1.2-.7-7.2.6-7.2.7 0 .9.5.4 1.1zm5 .3c1.3 1.6 1.2 1.7-.3.4-1.7-1.3-2.2-2.1-1.4-2.1.2 0 1 .8 1.7 1.7zm72.6-.2c0 .8-.4 1.2-.9.9-.4-.3-.8-.9-.8-1.5 0-.5.4-.9.8-.9.5 0 .9.7.9 1.5zm25.8 2.1c0 1.8-.3 3.5-.6 3.9-.3.3-.5-.7-.4-2.2.1-1.6-.2-3.3-.6-3.9-.5-.6-.3-1.1.4-1.1.8 0 1.3 1.2 1.2 3.3zm-107.7-.1c-.3.3-.9-.2-1.2-1.2-.6-1.4-.5-1.5.5-.6.7.7 1 1.5.7 1.8zm56.2-2.1c0 .2-.8 1-1.7 1.7-1.6 1.3-1.7 1.2-.4-.4 1.3-1.6 2.1-2.1 2.1-1.3zm-79.5 1.6c-.3.5-1.2 1-1.8 1-.7 0-.6-.4.3-1 1.9-1.2 2.3-1.2 1.5 0zm37.5 2.1c0 .5-.4.9-.8.9-.5 0-.9-.7-.9-1.5s.4-1.2.9-.9c.4.3.8.9.8 1.5zm31.2-.9c-1.3 1.3-8.4 2-7.7.7.3-.3 1.8-.5 3.5-.4 1.7.1 3.3-.1 3.6-.6.3-.5.8-.9 1.2-.9.3 0 .1.5-.6 1.2zm40.8.9c0 .5-.4.9-.8.9-.5 0-.9-.7-.9-1.5s.4-1.2.9-.9c.4.3.8.9.8 1.5zm11.7-.6c0 .8-.4 1.5-.9 1.5-1 0-1.1-1.4-.1-2.3.9-1 1-.9 1 .8zm20.3-1.1c0 .2-.8 1-1.7 1.7-1.6 1.3-1.7 1.2-.4-.4 1.3-1.6 2.1-2.1 2.1-1.3zm-174.5 2.4c-.3.3-1.1 0-1.8-.7-.9-1-.8-1.1.6-.5 1 .3 1.5.9 1.2 1.2zm10.2-.3c0 .8-.4 1.2-.9.9-.4-.3-.8-.9-.8-1.5 0-.5.4-.9.8-.9.5 0 .9.7.9 1.5zm11.7-.4c.3.2-1.5.5-3.9.5s-4.2-.3-4-.6c.5-.8 7.2-.7 7.9.1zm14.2 1.4c-.1 1.3-.4 2.7-.7 3-.5.4-.4-4.1 0-5.3.4-1 .8.2.7 2.3zm53.5-.8c1.3 1.6 1.2 1.7-.3.4-1.7-1.3-2.2-2.1-1.4-2.1.2 0 1 .8 1.7 1.7zm30.9-.7c0 .5-.5 1-1.1 1-.5 0-.7-.5-.4-1 .3-.6.8-1 1.1-1 .2 0 .4.4.4 1zm3.5 0c.3.5.1 1-.4 1-.6 0-1.1-.5-1.1-1 0-.6.2-1 .4-1 .3 0 .8.4 1.1 1zm11.9.1c.3.3-1 .5-2.9.4-1.8 0-3.6-.3-3.9-.6-.3-.3 1-.5 2.9-.4 1.8 0 3.6.3 3.9.6zm33.8 0c.2.2.1.3-.1.1-.2-.1-1.4.6-2.5 1.5-1.5 1.4-1.8 1.4-.8.2.6-.9.9-1.8.6-2.2-.3-.3.1-.4 1-.3.8.1 1.7.4 1.8.7zm18.3-.1c.3.5.1 1-.4 1-.6 0-1.1-.5-1.1-1 0-.6.2-1 .4-1 .3 0 .8.4 1.1 1zm-135.5.4c0 .2-.8 1-1.7 1.7-1.6 1.3-1.7 1.2-.4-.4 1.3-1.6 2.1-2.1 2.1-1.3zm51.7 2.8c.2 1.2.1 1.9-.2 1.6-.3-.3-.8-1.6-1-2.8-.2-1.2-.1-2 .2-1.6.4.4.8 1.6 1 2.8zm-55.7-1.8c0 .2-.7.7-1.6 1-.8.3-1.2.2-.9-.4.6-1 2.5-1.4 2.5-.6zm60.4.8c-.3.4-.9.8-1.5.8-.5 0-.9-.4-.9-.8 0-.5.7-.9 1.5-.9s1.2.4.9.9zm-94.3 1.5c1.3 1.6 1.2 1.7-.3.4-1-.7-1.8-1.5-1.8-1.7 0-.8.8-.3 2.1 1.3zm81.5-.5c.5-.4.6-.3.2.2-.4.5-.3 1.5.3 2.3 2.1 2.5.3 1.3-2.2-1.4-1.3-1.5-1.7-2.2-.8-1.5.9.6 2 .8 2.5.4zm34.2 1.3c-.3.3-.9-.2-1.2-1.2-.6-1.4-.5-1.5.5-.6.7.7 1 1.5.7 1.8zm21.6.5c-.6.6-1 .3-1-1s.4-1.6 1-1c.7.7.7 1.3 0 2zm-146-.4c.3.8.2 1.2-.4.9-.6-.3-1-1-1-1.6 0-1.4.7-1.1 1.4.7zm12.3-.1c0 .8-.4 1.2-.9.9-.4-.3-.8-.9-.8-1.5 0-.5.4-.9.8-.9.5 0 .9.7.9 1.5zm36.3-.9c0 .8-1.9 1.3-2.4.6-.3-.5.1-.9.9-.9s1.5.2 1.5.3zm8.4.2c.3.5-.1.9-.9.9s-1.2-.4-.9-.9c.3-.4.7-.8.9-.8.2 0 .6.4.9.8zm4 0c.3.5-.1.9-.9.9s-1.2-.4-.9-.9c.3-.4.7-.8.9-.8.2 0 .6.4.9.8zm55.6.2c0 .5-.4 1-1 1-.5 0-1-.5-1-1 0-.6.5-1 1-1 .6 0 1 .4 1 1zm22.4-.2c.3.5-.1.9-.9.9s-1.5-.4-1.5-.9c0-.4.4-.8.9-.8.6 0 1.2.4 1.5.8zm44.6.2c.8.5 1.1 1 .5 1-.5 0-1.7-.5-2.5-1s-1-1-.5-1c.6 0 1.7.5 2.5 1zm-97.4 2.5c-.1 1.3-.4 2.7-.7 3-.5.4-.4-4.1 0-5.3.4-1 .8.2.7 2.3zm-51.6-1.1c0 .2-.7.7-1.6 1-.8.3-1.2.2-.9-.4.6-1 2.5-1.4 2.5-.6zm-18 2.7c0 .5-.4.9-.8.9-.5 0-.9-.7-.9-1.5s.4-1.2.9-.9c.4.3.8.9.8 1.5zm49.9-.8c.8 1 .7 1.4-.2 1.4-.8 0-1.4-.6-1.4-1.4 0-.7.1-1.3.2-1.3.2 0 .8.6 1.4 1.3zm41.8.2c0 .8-.4 1.5-.9 1.5-1 0-1.1-1.4-.1-2.3.9-1 1-.9 1 .8zm16.4.2c1.3 1.6 1.2 1.7-.3.4-1-.7-1.8-1.5-1.8-1.7 0-.8.8-.3 2.1 1.3zm38.5.2c-.9 1-1.4 2.6-1 3.7.5 1.8.5 1.8-.6.1-.9-1.5-.8-2.2.6-3.8.9-1 1.9-1.9 2.2-1.9.3 0-.2.8-1.2 1.9zm5.5-.2c1.3 1.6 1.2 1.7-.3.4-1-.7-1.8-1.5-1.8-1.7 0-.8.8-.3 2.1 1.3zm-168.6.4c.3.3-.7.5-2.2.4-1.6-.1-3.3.2-3.9.6-.6.5-1.1.3-1.1-.4 0-1.3 6-1.8 7.2-.6zm11-.1c-.5.8-7.2.7-7.9-.1-.3-.2 1.5-.5 3.9-.5s4.2.3 4 .6zm33.2.5c0 .8-.4 1.2-.9.9-.4-.3-.8-.9-.8-1.5 0-.5.4-.9.8-.9.5 0 .9.7.9 1.5zm6.7-.7c.2.4-.4.8-1.4.8-1 0-1.6-.4-1.4-.8.3-.4.9-.8 1.4-.8.5 0 1.1.4 1.4.8zm6.6-.4c0 .2-.8 1-1.7 1.7-1.6 1.3-1.7 1.2-.4-.4 1.3-1.6 2.1-2.1 2.1-1.3zm13 0c0 .3-.4.8-1 1.1-.5.3-1 .1-1-.4 0-.6.5-1.1 1-1.1.6 0 1 .2 1 .4zm11.5.5c-.3.2.1 1.1.7 2 1.2 1.5 1.1 1.5-.7 0-1.1-.9-3.2-1.5-4.7-1.4-1.5.1-2.5-.1-2.3-.4.2-.4 1.9-.7 3.9-.7 1.9 0 3.3.2 3.1.5zm35.9 0c-.7.8-5.4.9-4.9.1.2-.3 1.5-.6 2.9-.6s2.3.2 2 .5zm13 .2c.3.3-.5.5-1.9.5-1.3 0-2.2-.3-1.9-.7.4-.8 3-.6 3.8.2zm6.6-.6c0 .2-.6.8-1.3 1.4-1 .8-1.4.7-1.4-.2 0-.8.6-1.4 1.4-1.4.7 0 1.3.1 1.3.2zm20.5.5c.3.5.1 1-.4 1-.6 0-1.1-.5-1.1-1 0-.6.2-1 .4-1 .3 0 .8.4 1.1 1zm17.6.7c1.3 1.6 1.2 1.7-.3.4-1.7-1.3-2.2-2.1-1.4-2.1.2 0 1 .8 1.7 1.7zm10.6-1.1c-.8.9-4.7 1.3-5.1.6-.2-.4.9-.8 2.5-.8 1.7-.1 2.8 0 2.6.2zm-195.6 2.1c1.3 1.6 1.2 1.7-.3.4-1-.7-1.8-1.5-1.8-1.7 0-.8.8-.3 2.1 1.3zm103.6 1c0 .9-.4 1-1.4.2-.7-.6-1.3-1.2-1.3-1.4 0-.1.6-.2 1.3-.2.8 0 1.4.6 1.4 1.4zm-90.3 2.3c-.6.6-1 .3-1-1s.4-1.6 1-1c.7.7.7 1.3 0 2zm47.4-2.1c1.5-1.3 1.6-1.2.4.3-1.5 1.9-4.9 2-4.9.1 0-.9.4-1 1.4-.2 1 .9 1.8.8 3.1-.2zm20.5.6c-.3.9-.8 1.4-1 1.1-.3-.3-.2-.9.2-1.5.9-1.6 1.5-1.3.8.4zm48 0c-.3.9-.8 1.4-1 1.1-.3-.3-.2-.9.2-1.5.9-1.6 1.5-1.3.8.4zm11.7 0c-.7.9-1.5 1.3-1.8 1-.3-.3-1.2.1-2.1.8-1.4 1.1-1.4 1-.2-.5.7-1 1.7-1.6 2.1-1.3.5.3 1.1.1 1.5-.5.3-.5.9-1 1.2-1 .3 0 0 .7-.7 1.5zm21.1.2c1.3 1.6 1.2 1.7-.3.4-1.7-1.3-2.2-2.1-1.4-2.1.2 0 1 .8 1.7 1.7zm5.6-.2c0 .8-.4 1.2-.9.9-.5-.3-.6-1-.3-1.5.9-1.3 1.2-1.1 1.2.6zm22.1 1c-.3.3-.9-.2-1.2-1.2-.6-1.4-.5-1.5.5-.6.7.7 1 1.5.7 1.8zm-163.5 3.7c-1.6 1.5-2 1.6-2 .4 0-.8.5-1.4 1.1-1.3.6.1 1-.9.9-2.3-.3-2.2-.2-2.3.8-.6.9 1.4.7 2.2-.8 3.8zm5.2-4.3c.3.5.2 1.2-.3 1.5-.5.3-.9-.1-.9-.9 0-1.7.3-1.9 1.2-.6zm17.9.7c.3.8.2 1.2-.4.9-.6-.3-1-1-1-1.6 0-1.4.7-1.1 1.4.7zm19.7.7c-1 .9-1.1.8-.5-.6.3-1 .9-1.5 1.2-1.2.3.3 0 1.1-.7 1.8zm21.9-1.9c0 .2-.8 1-1.7 1.7-1.6 1.3-1.7 1.2-.4-.4 1.3-1.6 2.1-2.1 2.1-1.3zm58.1 1.9c-1 .9-1.1.8-.5-.6.3-1 .9-1.5 1.2-1.2.3.3 0 1.1-.7 1.8zm33.4-1.3c-.3.5-1.2 1-1.8 1-.7 0-.6-.4.3-1 1.9-1.2 2.3-1.2 1.5 0zm2.9.6c.3.8.2 1.2-.4.9-.6-.3-1-1-1-1.6 0-1.4.7-1.1 1.4.7zm8.6-1.2c0 .2-.7.7-1.6 1-.8.3-1.2.2-.9-.4.6-1 2.5-1.4 2.5-.6zm-189.9 2.3c1.3 1.6 1.2 1.7-.3.4-1-.7-1.8-1.5-1.8-1.7 0-.8.8-.3 2.1 1.3zm95.4 1.1c-.3.3-1.1 0-1.8-.7-.9-1-.8-1.1.6-.5 1 .3 1.5.9 1.2 1.2zm-13.8.7c0 .8-.4 1.5-.9 1.5-1 0-1.1-1.4-.1-2.3.9-1 1-.9 1 .8zm48.3-1.1c0 .2-.8 1-1.7 1.7-1.6 1.3-1.7 1.2-.4-.4 1.3-1.6 2.1-2.1 2.1-1.3zm-113.6 1.7c.3.3-1 .5-2.9.4-1.8 0-3.6-.3-3.9-.6-.3-.3 1-.5 2.9-.4 1.8 0 3.6.3 3.9.6zm11.6-.1c0 .5-.2 1-.4 1-.3 0-.8-.5-1.1-1-.3-.6-.1-1 .4-1 .6 0 1.1.4 1.1 1zm15.5 0c.3.5.1 1-.4 1-.6 0-1.1-.5-1.1-1 0-.6.2-1 .4-1 .3 0 .8.4 1.1 1zm17.7 1c1.1 1.2 1.1 1.2-.2.4-.8-.6-3.9-1-6.8-.9-2.9 0-5.5-.2-5.7-.5-.8-1.4 11.5-.4 12.7 1zm10.2-1.1c-.7.8-5.4.9-4.9.1.2-.3 1.5-.6 2.9-.6s2.3.2 2 .5zm16.6 2.2c0 .5-.5.9-1.2.9-.6 0-.8-.3-.5-.7.4-.3.1-1.3-.6-2.2-1.1-1.4-1-1.4.6-.2.9.7 1.7 1.7 1.7 2.2zm3.6-.6c.1.8-.1 1.7-.5 1.9-.4.3-.7-.6-.7-1.9 0-2.5.8-2.5 1.2 0zM325 300c0 .5-.2 1-.4 1-.3 0-.8-.5-1.1-1-.3-.6-.1-1 .4-1 .6 0 1.1.4 1.1 1zm3.5 0c.3.5.1 1-.4 1-.6 0-1.1-.5-1.1-1 0-.6.2-1 .4-1 .3 0 .8.4 1.1 1zm28.9.1c.3.3-1 .5-2.9.4-1.8 0-3.6-.3-3.9-.6-.3-.3 1-.5 2.9-.4 1.8 0 3.6.3 3.9.6zm7.6-.1c0 .5-.5 1-1.1 1-.5 0-.7-.5-.4-1 .3-.6.8-1 1.1-1 .2 0 .4.4.4 1zm21.7.5c0 .8-.4 1.2-.9.9-.4-.3-.8-.9-.8-1.5 0-.5.4-.9.8-.9.5 0 .9.7.9 1.5zm11.7-.4c.3.3-1 .5-2.9.4-1.8 0-3.6-.3-3.9-.6-.3-.3 1-.5 2.9-.4 1.8 0 3.6.3 3.9.6zm12.3.6c0 .9-.4 1-1.4.2-.7-.6-1.3-1.2-1.3-1.4 0-.1.6-.2 1.3-.2.8 0 1.4.6 1.4 1.4zm-186.1.8c-.1.8-.8 2.1-1.6 2.8-1 1-1.1.9-.4-.3.5-.8.9-1.8 1-2.3.3-1.4.4-1.7.8-1.7.2 0 .3.7.2 1.5zm116.4-1.1c0 .2-.8 1-1.7 1.7-1.6 1.3-1.7 1.2-.4-.4 1.3-1.6 2.1-2.1 2.1-1.3zm-120 1.8c0 .4-.4.8-.9.8-.6 0-1.2-.4-1.5-.8-.3-.5.1-.9.9-.9s1.5.4 1.5.9zm136.8 1.5c-.8 1-1.4 3-1.3 4.6.1 1.5-.1 2.5-.4 2.2-.8-.9-.8-7.5 0-6.9.4.2 1 0 1.4-.6.3-.5.9-1 1.2-1 .3 0-.1.8-.9 1.7zm33.7.3c1 1.1 1.6 2 1.3 2-.3 0-1.3-.9-2.3-2-1-1.1-1.6-2-1.3-2 .3 0 1.3.9 2.3 2zm-178 0c-.3.5-1.2 1-1.8 1-.7 0-.6-.4.3-1 1.9-1.2 2.3-1.2 1.5 0zm18 0c-.3.5-1.2 1-1.8 1-.7 0-.6-.4.3-1 1.9-1.2 2.3-1.2 1.5 0zm8.6.7c1.2 1.6 1.2 1.7-.2.6-.9-.7-2-.9-2.4-.5-.5.4-.5.1-.1-.6.9-1.6 1.1-1.5 2.7.5zm46.9-.8c0 .6-.4 1.2-.8 1.5-.5.3-.9-.1-.9-.9s.4-1.5.9-1.5c.4 0 .8.4.8.9zm15.4-.1c.3.5-.1.9-.9.9s-1.2-.4-.9-.9c.3-.4.7-.8.9-.8.2 0 .6.4.9.8zm17.7.9c1.3 1.6 1.2 1.7-.3.4-1.7-1.3-2.2-2.1-1.4-2.1.2 0 1 .8 1.7 1.7zm7.3-.9c.3.5-.1.9-.9.9s-1.5-.4-1.5-.9c0-.4.4-.8.9-.8.6 0 1.2.4 1.5.8zm39.6.4c0 .6-.3.8-.7.5-.3-.4-1.3-.1-2.2.6-1.4 1.1-1.4 1-.2-.6 1.5-2 3.1-2.2 3.1-.5zm17.4-.4c.3.5-.1.9-.9.9s-1.2-.4-.9-.9c.3-.4.7-.8.9-.8.2 0 .6.4.9.8zm26.1.1c.3.5.2 1.2-.3 1.5-.5.3-.9-.1-.9-.9 0-1.7.3-1.9 1.2-.6zm-49.4 1.8c1.3 1.6 1.2 1.7-.3.4-1.7-1.3-2.2-2.1-1.4-2.1.2 0 1 .8 1.7 1.7zM209 306c0 .5-.2 1-.4 1-.3 0-.8-.5-1.1-1-.3-.6-.1-1 .4-1 .6 0 1.1.4 1.1 1zm60-.2c0 .5-.7.9-1.5.9s-1.2-.4-.9-.9c.3-.4.9-.8 1.5-.8.5 0 .9.4.9.8zm23.5 3.6c-.1 5.1-1.1 5.2-1.1.1 0-2.4.3-4.2.6-4 .4.2.6 2 .5 3.9zm4.5-3c-.7.7-1.3.7-2 0-.6-.6-.3-1 1-1s1.6.4 1 1zm71.7.1c0 .8-.4 1.2-.9.9-.5-.3-.6-1-.3-1.5.9-1.3 1.2-1.1 1.2.6zm36.3-.7c0 .5-.7.9-1.5.9s-1.2-.4-.9-.9c.3-.4.9-.8 1.5-.8.5 0 .9.4.9.8zm-104.5 4.7c.1 1.9-.1 3.2-.4 2.9-.3-.3-.6-2.1-.6-3.9-.1-1.9.1-3.2.4-2.9.3.3.6 2.1.6 3.9zm34.5-2.4c0 .5-.4.9-.8.9-.5 0-.9-.7-.9-1.5s.4-1.2.9-.9c.4.3.8.9.8 1.5zm47.9-.8c.8 1 .7 1.4-.2 1.4-.8 0-1.4-.6-1.4-1.4 0-.7.1-1.3.2-1.3.2 0 .8.6 1.4 1.3zm-169.9.1c0 .3-.4.8-1 1.1-.5.3-1 .1-1-.4 0-.6.5-1.1 1-1.1.6 0 1 .2 1 .4zm16 .6c0 .5-.5 1-1.1 1-.5 0-.7-.5-.4-1 .3-.6.8-1 1.1-1 .2 0 .4.4.4 1zm4-.4c0 .8-1.9 1.3-2.4.6-.3-.5.1-.9.9-.9s1.5.2 1.5.3zm17.7 1.1c0 .9-.4 1-1.4.2-.7-.6-1.3-1.2-1.3-1.4 0-.1.6-.2 1.3-.2.8 0 1.4.6 1.4 1.4zm5.7-.9c.3.5-.1.9-.9.9s-1.2-.4-.9-.9c.3-.4.7-.8.9-.8.2 0 .6.4.9.8zm73.1.2c-.5.8-7.2.7-7.9-.1-.3-.2 1.5-.5 3.9-.5s4.2.3 4 .6zm11 .7c-.1 1 .1 2.3.6 2.9.5.6.4 1.1-.5 1.1-1 0-1.5-3.5-.7-5.5.4-1 .9.1.6 1.5zm36.9-.8c-.7.8-7.4.9-6.9.1.2-.3 1.9-.6 3.9-.6 1.9 0 3.3.3 3 .5zM266 309.4c0 .2-.8 1-1.7 1.7-1.6 1.3-1.7 1.2-.4-.4 1.3-1.6 2.1-2.1 2.1-1.3zm14.1 1.3c1.3 1.6 1.2 1.7-.3.4-1-.7-1.8-1.5-1.8-1.7 0-.8.8-.3 2.1 1.3zm33.9-1.3c0 .2-.8 1-1.7 1.7-1.6 1.3-1.7 1.2-.4-.4 1.3-1.6 2.1-2.1 2.1-1.3zm22.1 2.3c-1.2 2-1.4 1.4-.5-1.2.4-.9.9-1.4 1.1-1.1.3.2 0 1.3-.6 2.3zm28.9-1.5c0 .4-.4.8-.9.8-.6 0-1.2-.4-1.5-.8-.3-.5.1-.9.9-.9s1.5.4 1.5.9zm-109.9 1.5c1.3 1.6 1.2 1.7-.3.4-1-.7-1.8-1.5-1.8-1.7 0-.8.8-.3 2.1 1.3zm67.7.8c-.3.3-.9-.2-1.2-1.2-.6-1.4-.5-1.5.5-.6.7.7 1 1.5.7 1.8zm24.2-2.1c0 .2-.8 1-1.7 1.7-1.6 1.3-1.7 1.2-.4-.4 1.3-1.6 2.1-2.1 2.1-1.3zm23.4 2.6c-.6.6-1 .3-1-1s.4-1.6 1-1c.7.7.7 1.3 0 2zm-124-.4c.3.8.2 1.2-.4.9-.6-.3-1-1-1-1.6 0-1.4.7-1.1 1.4.7zm138 0c.3.8.2 1.2-.4.9-.6-.3-1-1-1-1.6 0-1.4.7-1.1 1.4.7zm23.1-.6c.3.5.1 1-.4 1-.6 0-1.1-.5-1.1-1 0-.6.2-1 .4-1 .3 0 .8.4 1.1 1zm-174.5.4c0 .2-.8 1-1.7 1.7-1.6 1.3-1.7 1.2-.4-.4 1.3-1.6 2.1-2.1 2.1-1.3zm-23.5 1.6c-.3.5-1.2 1-1.8 1-.7 0-.6-.4.3-1 1.9-1.2 2.3-1.2 1.5 0zm3 1.7c-.1 1.6.5 3.7 1.4 4.8 1.5 1.8 1.5 1.9 0 .7-.9-.6-1.8-1-2.1-.7-.3.4-.3-6.3.1-7.3s.8.3.6 2.5zm8.5-1.9c0 .5-.7.9-1.5.9s-1.2-.4-.9-.9c.3-.4.9-.8 1.5-.8.5 0 .9.4.9.8zm41-.4c0 .2-.8 1-1.7 1.7-1.6 1.3-1.7 1.2-.4-.4 1.3-1.6 2.1-2.1 2.1-1.3zm98.5 1.4c-.3.3-1.1 0-1.8-.7-.9-1-.8-1.1.6-.5 1 .3 1.5.9 1.2 1.2zm-93.2.6c1.1-.1 1.6 0 1.2.4-1.2 1.2-5.2.9-5.2-.4 0-.9.5-1 1.1-.5.6.5 1.9.7 2.9.5zm59 .1c1.5-.1 3 .1 3.2.5.8 1.3-6.5.4-7.7-1-1.1-1.2-1-1.2.2-.4.8.6 2.8 1 4.3.9zm-84.3.1c0 .8-1.9 1.3-2.4.6-.3-.5.1-.9.9-.9s1.5.2 1.5.3zm2.5.4c.3.5.1 1-.4 1-.6 0-1.1-.5-1.1-1 0-.6.2-1 .4-1 .3 0 .8.4 1.1 1zm10.9-.1c-.7.8-5.4.9-4.9.1.2-.3 1.5-.6 2.9-.6s2.3.2 2 .5zm21.6.1c0 .5-.2 1-.4 1-.3 0-.8-.5-1.1-1-.3-.6-.1-1 .4-1 .6 0 1.1.4 1.1 1zm3.4-.2c.3.5-.1.9-.9.9s-1.2-.4-.9-.9c.3-.4.7-.8.9-.8.2 0 .6.4.9.8zm33 0c.3.5-.1.9-.9.9s-1.2-.4-.9-.9c.3-.4.7-.8.9-.8.2 0 .6.4.9.8zm3.6-.4c0 .3-.4.8-1 1.1-.5.3-1 .1-1-.4 0-.6.5-1.1 1-1.1.6 0 1 .2 1 .4zm19 0c0 .2-.8 1-1.7 1.7-1.6 1.3-1.7 1.2-.4-.4 1.3-1.6 2.1-2.1 2.1-1.3zm20.5.6c.3.5.1 1-.4 1-.6 0-1.1-.5-1.1-1 0-.6.2-1 .4-1 .3 0 .8.4 1.1 1zm20.9.1c.3.2-1.5.5-3.9.5s-4.2-.3-4-.6c.5-.8 7.2-.7 7.9.1zm5.6-.2c0 .6-.4 1.2-.8 1.5-.5.3-.9-.1-.9-.9s.4-1.5.9-1.5c.4 0 .8.4.8.9zm-165.6 2.3c-.3.4-.9.8-1.5.8-.5 0-.9-.4-.9-.8 0-.5.7-.9 1.5-.9s1.2.4.9.9zm75.6 0c0 .4-.4.8-.9.8-.6 0-1.2-.4-1.5-.8-.3-.5.1-.9.9-.9s1.5.4 1.5.9zm9-.7c0 .1-1 1-2.2 2.1-1.4 1.2-1.8 1.3-1 .3.6-.9 1-1.8.7-2.1-.3-.2.2-.5 1-.5s1.5.1 1.5.2zm-79.7 1.8c.4-.3.7-.1.7.5 0 1.7-1.6 1.5-3.1-.6-1.2-1.5-1.2-1.6.2-.5.9.7 1.9 1 2.2.6zm16.8.4c1.3 1.6 1.2 1.7-.3.4-1-.7-1.8-1.5-1.8-1.7 0-.8.8-.3 2.1 1.3zm13.1-.2c.2-.3.4 1.1.3 3 0 1.8-.3 3.6-.6 4-.3.3-.5-.7-.4-2.2.1-1.6-.5-3.7-1.4-4.8-1.5-1.8-1.5-1.9 0-.7.9.6 1.8 1 2.1.7zm22.6 1c-.3.3-.9-.2-1.2-1.2-.6-1.4-.5-1.5.5-.6.7.7 1 1.5.7 1.8zm13.9-1c0 .8-.4 1.2-.9.9-.5-.3-.6-1-.3-1.5.9-1.3 1.2-1.1 1.2.6zm17.6-.2c.4-.3.7-.1.7.5 0 1.7-1.6 1.5-3.1-.6-1.2-1.5-1.2-1.6.2-.5.9.7 1.9 1 2.2.6zm12.7-.9c0 .2-.8 1-1.7 1.7-1.6 1.3-1.7 1.2-.4-.4 1.3-1.6 2.1-2.1 2.1-1.3zm37.5.6c-.4.6-.2 1.7.4 2.4.8.9.7 1.3-.3 1.3-.7 0-1.2-.9-1.1-2.1.3-2.5.3-2.6 1.1-2.6.3 0 .2.5-.1 1zm21.8.5c-.3.9-.8 1.4-1 1.1-.3-.3-.2-.9.2-1.5.9-1.6 1.5-1.3.8.4zm-152.2 1.2c1.3 1.6 1.2 1.7-.3.4-1-.7-1.8-1.5-1.8-1.7 0-.8.8-.3 2.1 1.3zm18 0c1.2 1.6 1.2 1.7-.2.6-.9-.7-1.9-1-2.2-.6-.4.3-.7.1-.7-.5 0-1.7 1.6-1.5 3.1.5zm21.9-.7c-.8.5-1.9 1-2.5 1-.5 0-.3-.5.5-1s2-1 2.5-1c.6 0 .3.5-.5 1zm20.4.6c.3.8.2 1.2-.4.9-.6-.3-1-1-1-1.6 0-1.4.7-1.1 1.4.7zm10.6-1.2c0 .3-.4.8-1 1.1-.5.3-1 .1-1-.4 0-.6.5-1.1 1-1.1.6 0 1 .2 1 .4zm18 .6c0 .5-.2 1-.4 1-.3 0-.8-.5-1.1-1-.3-.6-.1-1 .4-1 .6 0 1.1.4 1.1 1zm20 0c0 .5-.5 1-1.1 1-.5 0-.7-.5-.4-1 .3-.6.8-1 1.1-1 .2 0 .4.4.4 1zm-86 .4c0 .2-.8 1-1.7 1.7-1.6 1.3-1.7 1.2-.4-.4 1.3-1.6 2.1-2.1 2.1-1.3zm12 0c0 .2-.8 1-1.7 1.7-1.6 1.3-1.7 1.2-.4-.4 1.3-1.6 2.1-2.1 2.1-1.3zm8.4 1.4c.3.5-.1.9-.9.9s-1.5-.4-1.5-.9c0-.4.4-.8.9-.8.6 0 1.2.4 1.5.8zm79.6 0c0 .5-.7.9-1.5.9s-1.2-.4-.9-.9c.3-.4.9-.8 1.5-.8.5 0 .9.4.9.8zm-118 2.3c0 .5-.4.9-.8.9-.5 0-.9-.7-.9-1.5s.4-1.2.9-.9c.4.3.8.9.8 1.5zm89.8-.6c2.9 0 5.5.2 5.7.5.8 1.4-11.5.4-12.7-1-1.1-1.2-1.1-1.2.2-.4.8.6 3.9 1 6.8.9zm-106.4.6c.3.2-1 .5-2.9.5-1.8 0-3.2-.3-3-.7.5-.7 5.2-.6 5.9.2zm10.1 0c.3.3-.6.5-1.9.5-1.4-.1-2.8-.4-3.1-.7-.3-.3.6-.5 1.9-.5 1.4.1 2.8.4 3.1.7zm56.5-.1c0 .5-.2 1-.4 1-.3 0-.8-.5-1.1-1-.3-.6-.1-1 .4-1 .6 0 1.1.4 1.1 1zm3.5 0c.3.5.1 1-.4 1-.6 0-1.1-.5-1.1-1 0-.6.2-1 .4-1 .3 0 .8.4 1.1 1zm23.9-.1c-.7.8-5.4.9-4.9.1.2-.3 1.5-.6 2.9-.6s2.3.2 2 .5zm24.6.1c0 .5-.2 1-.4 1-.3 0-.8-.5-1.1-1-.3-.6-.1-1 .4-1 .6 0 1.1.4 1.1 1zm3.4-.2c.3.5-.1.9-.9.9s-1.2-.4-.9-.9c.3-.4.7-.8.9-.8.2 0 .6.4.9.8zm36.1.4c.4.4-.1.5-1.2.4-1-.2-2.3 0-2.9.5-.6.5-1.1.4-1.1-.5 0-1.3 4-1.6 5.2-.4zm7.8 1.3c-.3.9-.8 1.4-1 1.1-.3-.3-.2-.9.2-1.5.9-1.6 1.5-1.3.8.4zm-134.9.7c-.3.4-.9.8-1.5.8-.5 0-.9-.4-.9-.8 0-.5.7-.9 1.5-.9s1.2.4.9.9zm12.1-.3c-.9.8-3.6 1-3 .2.2-.4 1.1-.8 2-.8.8 0 1.3.3 1 .6zm38.6.8c1.3 1.6 1.2 1.7-.3.4-1.7-1.3-2.2-2.1-1.4-2.1.2 0 1 .8 1.7 1.7zm49.9-1.3c0 .2-.8 1-1.7 1.7-1.6 1.3-1.7 1.2-.4-.4 1.3-1.6 2.1-2.1 2.1-1.3zm-127.2 3.1c-.3.3-.9-.2-1.2-1.2-.6-1.4-.5-1.5.5-.6.7.7 1 1.5.7 1.8zm41.8 0c.1.8-.1 1.7-.5 1.9-.4.3-.7-.6-.7-1.9 0-2.5.8-2.5 1.2 0zm8 1.9c0 2.5-.3 4.3-.6 4.1-.5-.3-.6-7.2-.1-8.3.4-1 .7.4.7 4.2zm41.7-2.9c-.3.9-.8 1.4-1 1.1-.3-.3-.2-.9.2-1.5.9-1.6 1.5-1.3.8.4zm20.5 1c-.3.3-.9-.2-1.2-1.2-.6-1.4-.5-1.5.5-.6.7.7 1 1.5.7 1.8zm-120.1 0c0 .8-.4 1.2-.9.9-.4-.3-.8-.9-.8-1.5 0-.5.4-.9.8-.9.5 0 .9.7.9 1.5zm24.8-.5c-.3.5-1.2 1-1.8 1-.7 0-.6-.4.3-1 1.9-1.2 2.3-1.2 1.5 0zm48 0c.3.6-.1.7-.9.4-1.8-.7-2.1-1.4-.7-1.4.6 0 1.3.4 1.6 1zm39.2.7c0 .9-.4 1-1.4.2-1-.9-1.8-.8-3 .2-1.6 1.3-1.7 1.2-.5-.3 1.5-1.9 4.9-2 4.9-.1zm48-.2c0 .8-.4 1.2-.9.9-.4-.3-.8-.9-.8-1.5 0-.5.4-.9.8-.9.5 0 .9.7.9 1.5zM249.5 330c-.3.5-1.2 1-1.8 1-.7 0-.6-.4.3-1 1.9-1.2 2.3-1.2 1.5 0zm23.2.5c0 .8-.4 1.2-.9.9-.4-.3-.8-.9-.8-1.5 0-.5.4-.9.8-.9.5 0 .9.7.9 1.5zm69.3-1.1c0 .2-.8 1-1.7 1.7-1.6 1.3-1.7 1.2-.4-.4 1.3-1.6 2.1-2.1 2.1-1.3zm19.1.9c-.6.8-.9 1.6-.6 1.8.2.3-1.1.5-3 .5-1.8 0-3.2-.4-2.9-.8.2-.4 1.3-.5 2.4-.3 1 .2 2.4-.3 3.1-1.1.6-.8 1.4-1.4 1.6-1.4.3 0 0 .6-.6 1.3zm3.5 2.1c0 1.9-.3 3.3-.7 3.1-.7-.5-.4-6.5.4-6.5.1 0 .3 1.5.3 3.4zm-149.5-.7c1.3 1.6 1.2 1.7-.3.4-1-.7-1.8-1.5-1.8-1.7 0-.8.8-.3 2.1 1.3zm99.9-1.3c0 .2-.8 1-1.7 1.7-1.6 1.3-1.7 1.2-.4-.4 1.3-1.6 2.1-2.1 2.1-1.3zm12 1.7c0 .5-.4.9-.8.9-.5 0-.9-.7-.9-1.5s.4-1.2.9-.9c.4.3.8.9.8 1.5zm20.3-.7c1.1-.1 1.6 0 1.2.4-1.2 1.2-5.2.9-5.2-.4 0-.9.5-1 1.1-.5.6.5 1.9.7 2.9.5zM233 332c0 .5-.5 1-1.1 1-.5 0-.7-.5-.4-1 .3-.6.8-1 1.1-1 .2 0 .4.4.4 1zm4-.6c0 .3-.4.8-1 1.1-.5.3-1 .1-1-.4 0-.6.5-1.1 1-1.1.6 0 1 .2 1 .4zm16 .6c0 .5-.5 1-1.1 1-.5 0-.7-.5-.4-1 .3-.6.8-1 1.1-1 .2 0 .4.4.4 1zm26-.1c0 .6-.4 1.2-.8 1.5-.5.3-.9-.1-.9-.9s.4-1.5.9-1.5c.4 0 .8.4.8.9zm14 .1c0 .5-.2 1-.4 1-.3 0-.8-.5-1.1-1-.3-.6-.1-1 .4-1 .6 0 1.1.4 1.1 1zm3.4-.2c.3.5-.1.9-.9.9s-1.2-.4-.9-.9c.3-.4.7-.8.9-.8.2 0 .6.4.9.8zm24.6.6c-.7.7-1.3.7-2 0-.6-.6-.3-1 1-1s1.6.4 1 1zm-99.9 1.3c1.3 1.6 1.2 1.7-.3.4-1.7-1.3-2.2-2.1-1.4-2.1.2 0 1 .8 1.7 1.7zm40 0c1.3 1.6 1.2 1.7-.3.4-1.7-1.3-2.2-2.1-1.4-2.1.2 0 1 .8 1.7 1.7zm4.4.3c.3.6-.1.7-.9.4-1.8-.7-2.1-1.4-.7-1.4.6 0 1.3.4 1.6 1zm-13 .9c.3.5.2 1.2-.3 1.5-.5.3-.9-.1-.9-.9 0-1.7.3-1.9 1.2-.6zm86 .3c.5-.4.5-.1.1.6-.6 1-1.1 1-2.2.1-.8-.6-1.4-1.4-1.4-1.6 0-.3.6 0 1.3.6.8.6 1.8.7 2.2.3zm30.5-.9c0 .2-1 1.2-2.2 2.3l-2.3 1.9 1.9-2.3c1.8-2.1 2.6-2.7 2.6-1.9zm-132.4 2.9l1.9 2.3-2.1-1.8c-1.3-1-2.9-1.5-4-1.1-1.6.5-1.6.4-.4-.5 2.1-1.5 2.4-1.4 4.6 1.1zm4.5-.9c-.6.8-.7 1.8-.3 2.2.4.5.1.5-.6.1-1-.6-1-1.1-.1-2.2.6-.8 1.4-1.4 1.6-1.4.3 0 0 .6-.6 1.3zm54.4-.3c.3.6-.1.7-.9.4-1.8-.7-2.1-1.4-.7-1.4.6 0 1.3.4 1.6 1zm8.5-.4c0 .8-1.9 1.3-2.4.6-.3-.5.1-.9.9-.9s1.5.2 1.5.3zm43-.2c0 .2-.7.7-1.6 1-.8.3-1.2.2-.9-.4.6-1 2.5-1.4 2.5-.6zm-70.4 4c-.2 3.8-1.2 3.9-1.2.1 0-1.8.3-3.2.7-3 .3.3.5 1.5.5 2.9zm-64 .1c.1.8-.2 1.5-.6 1.5-.5 0-.8-.9-.7-2 .1-2.1 1-1.8 1.3.5zm3.9-.7c-.3.3-1.1 0-1.8-.7-.9-1-.8-1.1.6-.5 1 .3 1.5.9 1.2 1.2zm3.6-.1c1.3 1.6 1.2 1.7-.3.4-1-.7-1.8-1.5-1.8-1.7 0-.8.8-.3 2.1 1.3zm8.9-.9c0 .5-.7.9-1.5.9s-1.2-.4-.9-.9c.3-.4.9-.8 1.5-.8.5 0 .9.4.9.8zm44 .1c0 .5-.8 1.5-1.7 2.2-1.6 1.2-1.7 1.2-.6-.2.7-.9 1-1.9.6-2.2-.3-.4-.1-.7.5-.7.7 0 1.2.4 1.2.9zm103.5.9c-.3.3-1.1 0-1.8-.7-.9-1-.8-1.1.6-.5 1 .3 1.5.9 1.2 1.2zm-89.5-.4c0 .2-.8 1-1.7 1.7-1.6 1.3-1.7 1.2-.4-.4 1.3-1.6 2.1-2.1 2.1-1.3zm16 1.7c0 .5-.4.9-.8.9-.5 0-.9-.7-.9-1.5s.4-1.2.9-.9c.4.3.8.9.8 1.5zm34.6-.2c-.9 1-1.4 2.6-1 3.7.5 1.8.5 1.8-.6.1-.9-1.5-.8-2.2.6-3.8.9-1 1.9-1.9 2.2-1.9.3 0-.2.8-1.2 1.9zm25.1-.4c0 .8-.4 1.5-.9 1.5-1 0-1.1-1.4-.1-2.3.9-1 1-.9 1 .8zm-96 1c0 .8-.4 1.2-.9.9-.4-.3-.8-.9-.8-1.5 0-.5.4-.9.8-.9.5 0 .9.7.9 1.5zm30.8-.5c-.5.8-7.2.7-7.9-.1-.3-.2 1.5-.5 3.9-.5s4.2.3 4 .6zm11.5 0c0 .5-.5 1-1.1 1-.5 0-.7-.5-.4-1 .3-.6.8-1 1.1-1 .2 0 .4.4.4 1zm23.5 0c.3.5.1 1-.4 1-.6 0-1.1-.5-1.1-1 0-.6.2-1 .4-1 .3 0 .8.4 1.1 1zm13.9-.1c-.8.8-3.4 1-3.8.2-.3-.4.6-.7 1.9-.7 1.4 0 2.2.2 1.9.5zm3.7.8c1.3 1.6 1.2 1.7-.3.4-1.7-1.3-2.2-2.1-1.4-2.1.2 0 1 .8 1.7 1.7zm18.9 1.4c0 .5-.5.9-1.2.9-.6 0-.8-.3-.5-.7.4-.3.1-1.3-.6-2.2-1.1-1.4-1-1.4.6-.2.9.7 1.7 1.7 1.7 2.2zm3.6.5c0 1.3-.2 2.2-.5 1.9-.3-.3-.6-1.7-.7-3.1 0-1.3.2-2.2.5-1.9.3.3.6 1.7.7 3.1zm-156.3-1.1c-.3.9-.8 1.4-1 1.1-.3-.3-.2-.9.2-1.5.9-1.6 1.5-1.3.8.4zm112.5 1c-.3.3-.9-.2-1.2-1.2-.6-1.4-.5-1.5.5-.6.7.7 1 1.5.7 1.8zm47.5-1c-.3.9-.8 1.4-1 1.1-.3-.3-.2-.9.2-1.5.9-1.6 1.5-1.3.8.4zm-151 .7c-.6.7-.9 2.1-.8 3.1.2.9 0 1.5-.5 1.2-1.3-.8.1-5.5 1.7-5.5.3 0 .1.6-.4 1.2zm55.7-.8c0 .2-.7.7-1.6 1-.8.3-1.2.2-.9-.4.6-1 2.5-1.4 2.5-.6zm23.1 2.3c-1.2 2-1.4 1.4-.5-1.2.4-.9.9-1.4 1.1-1.1.3.2 0 1.3-.6 2.3zm-75.6 2.7c-.1 5.1-1.1 5.2-1.1.1 0-2.4.3-4.2.6-4 .4.2.6 2 .5 3.9zm8-.9c0 1.9-.7 4-1.4 4.7-1.1 1.1-1.2 1-.5-.2.5-.8.9-2.7 1-4.3.2-3.1.3-3.7.7-3.7.2 0 .3 1.6.2 3.5zm34.5-1.4c0 .5-.4.9-.8.9-.5 0-.9-.7-.9-1.5s.4-1.2.9-.9c.4.3.8.9.8 1.5zm19.4.9c-.6.6-1 .3-1-1s.4-1.6 1-1c.7.7.7 1.3 0 2zm18.1-2.1c.3.5.2 1.2-.3 1.5-.5.3-.9-.1-.9-.9 0-1.7.3-1.9 1.2-.6zm6.5-.5c0 .2-.8 1-1.7 1.7-1.6 1.3-1.7 1.2-.4-.4 1.3-1.6 2.1-2.1 2.1-1.3zm80.1 1.3c1.3 1.6 1.2 1.7-.3.4-1.7-1.3-2.2-2.1-1.4-2.1.2 0 1 .8 1.7 1.7zm-150 .7c-.5.6-.7 1.9-.5 2.9.1 1.1 0 1.6-.4 1.2-1.2-1.2-.9-5.2.4-5.2.9 0 1 .5.5 1.1zm5 .3c1.3 1.6 1.2 1.7-.3.4-1-.7-1.8-1.5-1.8-1.7 0-.8.8-.3 2.1 1.3zm82.9-.7c0 .5-.2 1-.4 1-.3 0-.8-.5-1.1-1-.3-.6-.1-1 .4-1 .6 0 1.1.4 1.1 1zm17.4.6c.3.8.2 1.2-.4.9-.6-.3-1-1-1-1.6 0-1.4.7-1.1 1.4.7zm4.1-.7c.3.5.2 1.2-.3 1.5-.5.3-.9-.1-.9-.9 0-1.7.3-1.9 1.2-.6zm4 .9c-.3.3-1.1 0-1.8-.7-.9-1-.8-1.1.6-.5 1 .3 1.5.9 1.2 1.2zm26-.9c.3.5.2 1.2-.3 1.5-.5.3-.9-.1-.9-.9 0-1.7.3-1.9 1.2-.6zm-163.4 1.8c1.3 1.6 1.2 1.7-.3.4-1.7-1.3-2.2-2.1-1.4-2.1.2 0 1 .8 1.7 1.7zm19.7.8c-.3.3-.9-.2-1.2-1.2-.6-1.4-.5-1.5.5-.6.7.7 1 1.5.7 1.8zm44.2-2.1c0 .2-.8 1-1.7 1.7-1.6 1.3-1.7 1.2-.4-.4 1.3-1.6 2.1-2.1 2.1-1.3zm84.1 1.3c1.3 1.6 1.2 1.7-.3.4-1.7-1.3-2.2-2.1-1.4-2.1.2 0 1 .8 1.7 1.7zm12 0c1.3 1.6 1.2 1.7-.3.4-1.7-1.3-2.2-2.1-1.4-2.1.2 0 1 .8 1.7 1.7zm-105 1c1.3 1.6 1.2 1.7-.3.4-1-.7-1.8-1.5-1.8-1.7 0-.8.8-.3 2.1 1.3zm48.9-.9c0 .5-.7.9-1.5.9s-1.2-.4-.9-.9c.3-.4.9-.8 1.5-.8.5 0 .9.4.9.8zm-52.3 1.5c0 1.3-6 1.8-7.2.5-.3-.3.8-.4 2.5-.3 1.7.1 3.3-.1 3.6-.6.7-1.3 1.1-1.1 1.1.4zm125.5-.1c-1.3 1.3-8.4 2-7.7.7.3-.3 1.8-.5 3.5-.4 1.7.1 3.3-.1 3.6-.6.3-.5.8-.9 1.2-.9.3 0 .1.5-.6 1.2zm-137.7.8c.3.5.1 1-.4 1-.6 0-1.1-.5-1.1-1 0-.6.2-1 .4-1 .3 0 .8.4 1.1 1zm36.9.1c.3.3-1 .5-2.9.4-1.8 0-3.6-.3-3.9-.6-.3-.3 1-.5 2.9-.4 1.8 0 3.6.3 3.9.6zm6.6-.6c0 .2-.6.8-1.3 1.4-1 .8-1.4.7-1.4-.2 0-.8.6-1.4 1.4-1.4.7 0 1.3.1 1.3.2zm34.7 1c0 .8-.4 1.2-.9.9-.4-.3-.8-.9-.8-1.5 0-.5.4-.9.8-.9.5 0 .9.7.9 1.5zm11.7-.4c.3.2-1.5.5-3.9.5s-4.2-.3-4-.6c.5-.8 7.2-.7 7.9.1zm6.6-.1c0 .5-.5 1-1.1 1-.5 0-.7-.5-.4-1 .3-.6.8-1 1.1-1 .2 0 .4.4.4 1zm4-.4c0 .8-1.9 1.3-2.4.6-.3-.5.1-.9.9-.9s1.5.2 1.5.3zm25.1 1.1c1.3 1.6 1.2 1.7-.3.4-1.7-1.3-2.2-2.1-1.4-2.1.2 0 1 .8 1.7 1.7zm-97.6 1.4c-.3 1.2-.7 2.4-1 2.7-.3.3-.3-.5-.1-1.9.6-3 .5-2.9 1-2.9.3 0 .3 1 .1 2.1zm112.1.5c.1.9 0 1.3-.4 1-.3-.4-.7-1.4-.8-2.2-.1-.9 0-1.3.4-1 .3.4.7 1.4.8 2.2zM233 349.4c0 .2-.7.7-1.6 1-.8.3-1.2.2-.9-.4.6-1 2.5-1.4 2.5-.6zm43.5.5c-.9 1.6 1.5 2.3 3.3 1 1.6-1.2 1.6-1.2 0 .6-1.4 1.5-2 1.6-3.2.6-1.4-1.2-1.4-3.1 0-3.1.3 0 .3.4-.1.9zm8 1.1c1 1.1 1.6 2 1.3 2-.3 0-1.3-.9-2.3-2-1-1.1-1.6-2-1.3-2 .3 0 1.3.9 2.3 2zm36.5-.6c-.7.7-1.3.7-2 0-.6-.6-.3-1 1-1s1.6.4 1 1zm52-.2c0 .4-.4.8-.9.8-.6 0-1.2-.4-1.5-.8-.3-.5.1-.9.9-.9s1.5.4 1.5.9zm31.8.8c-.7 1-1.4 1.7-1.7 1.5-.4-.4 1.8-3.5 2.5-3.5.2 0-.1.9-.8 2zM267 352.1c0 .5-.4.9-.8.9-.5 0-.9-.7-.9-1.5s.4-1.2.9-.9c.4.3.8.9.8 1.5zm31.7-.7c0 .7-.7 1.3-1.6 1.1-.9-.1-2.3.3-3.1.9-1.3 1-1.3.9-.1-.6.7-1 1.7-1.6 2.1-1.3.5.3 1.1.1 1.5-.5.8-1.4 1.2-1.3 1.2.4zm44.3.7c0 .5-.4.9-.8.9-.5 0-.9-.7-.9-1.5s.4-1.2.9-.9c.4.3.8.9.8 1.5zm37.5 1.4c0 1.9-.7 4-1.4 4.7-1.1 1.1-1.2 1-.5-.2.5-.8.9-2.7 1-4.3.2-3.1.3-3.7.7-3.7.2 0 .3 1.6.2 3.5zm-109.8-.8c0 .9-.4 1-1.4.2-.7-.6-1.3-1.2-1.3-1.4 0-.1.6-.2 1.3-.2.8 0 1.4.6 1.4 1.4zm45.9 1.9c0 1.3-.2 2.2-.5 1.9-.3-.3-.6-1.7-.7-3.1 0-1.3.2-2.2.5-1.9.3.3.6 1.7.7 3.1zm7.9-.2c0 1.9-.3 3.7-.6 4-.4.5-.4-6.2 0-7.2s.7.4.6 3.2zm22.2-1.9c0 .8-.4 1.2-.9.9-.4-.3-.8-.9-.8-1.5 0-.5.4-.9.8-.9.5 0 .9.7.9 1.5zm38.8-.5c-.3.5-1.2 1-1.8 1-.7 0-.6-.4.3-1 1.9-1.2 2.3-1.2 1.5 0zM230 353.4c0 .2-.8 1-1.7 1.7-1.6 1.3-1.7 1.2-.4-.4 1.3-1.6 2.1-2.1 2.1-1.3zm3.5.6c-.3.5-1.2 1-1.8 1-.7 0-.6-.4.3-1 1.9-1.2 2.3-1.2 1.5 0zm3 1.7c-.1 1.6.3 3.5.9 4.3.9 1.3.9 1.3-.5.3-1.2-1-1.8-5-1-7.1.4-1 .8.3.6 2.5zm7.6-1c1.3 1.6 1.2 1.7-.3.4-1-.7-1.8-1.5-1.8-1.7 0-.8.8-.3 2.1 1.3zm76.9-.7c0 .5-.4 1-1 1-.5 0-1-.5-1-1 0-.6.5-1 1-1 .6 0 1 .4 1 1zm80-.2c0 .5-.7.9-1.5.9s-1.2-.4-.9-.9c.3-.4.9-.8 1.5-.8.5 0 .9.4.9.8zm-110.3 1.7c0 .8-.4 1.5-.9 1.5-1 0-1.1-1.4-.1-2.3.9-1 1-.9 1 .8zm44.3-1.1c0 .2-.8 1-1.7 1.7-1.6 1.3-1.7 1.2-.4-.4 1.3-1.6 2.1-2.1 2.1-1.3zm16 1.7c0 .5-.4.9-.8.9-.5 0-.9-.7-.9-1.5s.4-1.2.9-.9c.4.3.8.9.8 1.5zm-127.6 0c-.2.4-1.2.6-2.2.4-.9-.1-2.4.3-3.2.9-1.3.9-1.3.8-.3-.5 1.2-1.4 6.6-2.2 5.7-.8zm45.1 0c.3.3-.6.5-1.9.5-1.4-.1-2.8-.4-3.1-.7-.3-.3.6-.5 1.9-.5 1.4.1 2.8.4 3.1.7zm8.5-.1c0 .5-.5 1-1.1 1-.5 0-.7-.5-.4-1 .3-.6.8-1 1.1-1 .2 0 .4.4.4 1zm4-.6c0 .3-.4.8-1 1.1-.5.3-1 .1-1-.4 0-.6.5-1.1 1-1.1.6 0 1 .2 1 .4zm21.5.6c-.5.8-7.2.7-7.9-.1-.3-.2 1.5-.5 3.9-.5s4.2.3 4 .6zm41.9.1c.3.3-1 .5-2.9.4-1.8 0-3.6-.3-3.9-.6-.3-.3 1-.5 2.9-.4 1.8 0 3.6.3 3.9.6zm16.6-.1c0 .5-.2 1-.4 1-.3 0-.8-.5-1.1-1-.3-.6-.1-1 .4-1 .6 0 1.1.4 1.1 1zm4-.6c0 .3-.4.8-1 1.1-.5.3-1 .1-1-.4 0-.6.5-1.1 1-1.1.6 0 1 .2 1 .4zm11.7 1.3c0 .8-.5.9-1.1.4-.6-.4-2.3-.7-3.8-.6-1.5.1-2.5-.1-2.3-.4.7-1.3 7.2-.7 7.2.6zm13.4 0c1.3 1.6 1.2 1.7-.3.4-1.7-1.3-2.2-2.1-1.4-2.1.2 0 1 .8 1.7 1.7zm-157.3 1.8c-.3.3-.9-.2-1.2-1.2-.6-1.4-.5-1.5.5-.6.7.7 1 1.5.7 1.8zm7.5-1c-.3.9-.8 1.4-1 1.1-.3-.3-.2-.9.2-1.5.9-1.6 1.5-1.3.8.4zm73.2.5c.3.6-.1.7-.9.4-1.8-.7-2.1-1.4-.7-1.4.6 0 1.3.4 1.6 1zm15.5-.6c0 .2-.7.7-1.6 1-.8.3-1.2.2-.9-.4.6-1 2.5-1.4 2.5-.6zm74 0c0 .3-.4.8-1 1.1-.5.3-1 .1-1-.4 0-.6.5-1.1 1-1.1.6 0 1 .2 1 .4zm-100.7 2.1c-.3.9-.8 1.4-1 1.1-.3-.3-.2-.9.2-1.5.9-1.6 1.5-1.3.8.4zm36.5 1c-.3.3-.9-.2-1.2-1.2-.6-1.4-.5-1.5.5-.6.7.7 1 1.5.7 1.8zm-118.2 1.1c0 2-1.1 2.5-1.1.6 0-.4-.3-1.2-.7-1.8-.4-.6-.1-1.1.5-1.1.7 0 1.3 1.1 1.3 2.3zm58.4-2.2c0 .2-.7.7-1.6 1-.8.3-1.2.2-.9-.4.6-1 2.5-1.4 2.5-.6zm9.1 1.9c-1 .9-1.1.8-.5-.6.3-1 .9-1.5 1.2-1.2.3.3 0 1.1-.7 1.8zm54.9-1.9c0 .2-.7.7-1.6 1-.8.3-1.2.2-.9-.4.6-1 2.5-1.4 2.5-.6zm9.7 1.1c0 .8-.4 1.2-.9.9-.4-.3-.8-.9-.8-1.5 0-.5.4-.9.8-.9.5 0 .9.7.9 1.5zm10.8-.5c.3.6-.1.7-.9.4-1.8-.7-2.1-1.4-.7-1.4.6 0 1.3.4 1.6 1zm25.6.4c-.5.6-.7 1.9-.5 2.9.1 1.1 0 1.6-.4 1.2-1.2-1.2-.9-5.2.4-5.2.9 0 1 .5.5 1.1zm5 .3c1.3 1.6 1.2 1.7-.3.4-1.7-1.3-2.2-2.1-1.4-2.1.2 0 1 .8 1.7 1.7zm-165.1-.3c0 .2-.8 1-1.7 1.7-1.6 1.3-1.7 1.2-.4-.4 1.3-1.6 2.1-2.1 2.1-1.3zm79.9.9c.8 1 .7 1.4-.2 1.4-.8 0-1.4-.6-1.4-1.4 0-.7.1-1.3.2-1.3.2 0 .8.6 1.4 1.3zm24.1-.9c0 .2-.8 1-1.7 1.7-1.6 1.3-1.7 1.2-.4-.4 1.3-1.6 2.1-2.1 2.1-1.3zm-12.5 2.4c-.3.3-1.1 0-1.8-.7-.9-1-.8-1.1.6-.5 1 .3 1.5.9 1.2 1.2zm3.6-.1c1.3 1.6 1.2 1.7-.3.4-1.7-1.3-2.2-2.1-1.4-2.1.2 0 1 .8 1.7 1.7zm60.9-.7c0 .5-.2 1-.4 1-.3 0-.8-.5-1.1-1-.3-.6-.1-1 .4-1 .6 0 1.1.4 1.1 1zm-82.8 1.2c-1.3 1.3-8.4 2-7.7.7.3-.3 1.8-.5 3.5-.4 1.7.1 3.3-.1 3.6-.6.3-.5.8-.9 1.2-.9.3 0 .1.5-.6 1.2zm14.4 2.3c0 1.9-.2 3.2-.5 3-.2-.3-1.1.1-2 .8-1.4 1.1-1.5 1-.1-.7.8-1.1 1.6-2.7 1.6-3.8.3-4.2 1-3.8 1 .7zm22.5-1.8c1.3 1.6 1.2 1.7-.3.4-1.7-1.3-2.2-2.1-1.4-2.1.2 0 1 .8 1.7 1.7zm-56.4.8c0 .8-.4 1.2-.9.9-.4-.3-.8-.9-.8-1.5 0-.5.4-.9.8-.9.5 0 .9.7.9 1.5zm7.4.2c1.3 1.7 1.3 1.7-.6.3-1.1-.8-2.2-1.6-2.4-1.7-.2-.2 0-.3.6-.3s1.7.8 2.4 1.7zm56 0c1.3 1.6 1.2 1.7-.3.4-1.7-1.3-2.2-2.1-1.4-2.1.2 0 1 .8 1.7 1.7zm7.5-.5c.4.7.3.8-.5.4-.6-.4-2-.2-2.9.6-1.5 1.2-1.6 1.1-.3-.5 1.6-2 2.7-2.2 3.7-.5zm5.4-.3c0 .6-.4 1.2-.8 1.5-.5.3-.9-.1-.9-.9s.4-1.5.9-1.5c.4 0 .8.4.8.9zm-54.5 1c.3.5.2 1.2-.3 1.5-.5.3-.9-.1-.9-.9 0-1.7.3-1.9 1.2-.6zm32.1.6c-.1.8-.8 2.1-1.4 2.7-1 1-1.7.7-3.5-1.2l-2.2-2.4 2.3 1.8c2.1 1.8 3.5 1.6 3.8-.5.2-1.5.4-1.9.8-1.9.2 0 .3.7.2 1.5zm31.9.5c-.3.5.3 1.3 1.2 1.9 1 .6 1.3 1.1.6 1.1-1.3 0-2.6-1.7-2.9-3.8-.1-.6.2-1 .7-.6.5.3.7.9.4 1.4zm16.6-.3c1.3 1.6 1.2 1.7-.3.4-1-.7-1.8-1.5-1.8-1.7 0-.8.8-.3 2.1 1.3zm-160.7.1c.3.5-.1.9-.9.9s-1.2-.4-.9-.9c.3-.4.7-.8.9-.8.2 0 .6.4.9.8zm4.2 2.7c-.1.8-.5 1.7-.8 2.1-.4.3-.5-.2-.4-1.3.2-1-.2-2.5-.8-3.3-.9-1.3-.9-1.3.6-.2.9.7 1.5 1.9 1.4 2.7zm3.9-2.6c.3.5.2 1.2-.3 1.5-.5.3-.9-.1-.9-.9 0-1.7.3-1.9 1.2-.6zm79.6.8c1.3 1.6 1.2 1.7-.3.4-1.7-1.3-2.2-2.1-1.4-2.1.2 0 1 .8 1.7 1.7zm12.6-1c-.4.3.1 1.6 1 2.7 1.4 1.5 1.4 1.8.2.8-.9-.6-1.8-.9-2.2-.6-.3.3-.4-.2-.2-1.3.5-2.4.4-2.3 1.2-2.3.3 0 .3.3 0 .7zm48.7.5c-.3.4-.9.8-1.5.8-.5 0-.9-.4-.9-.8 0-.5.7-.9 1.5-.9s1.2.4.9.9zm-86.4 1.9c0 .5-.4.9-.8.9-.5 0-.9-.7-.9-1.5s.4-1.2.9-.9c.4.3.8.9.8 1.5zm21-.6c-1.4 1.7-3 2-3 .4 0-.5.4-.8.9-.4.5.3 1.2.1 1.6-.5.3-.5.9-1 1.2-1 .3 0 0 .7-.7 1.5zm46.7 0c0 .8-.4 1.5-.9 1.5-1 0-1.1-1.4-.1-2.3.9-1 1-.9 1 .8zm23.4 1.8c-1 .9-1.1.8-.5-.6.3-1 .9-1.5 1.2-1.2.3.3 0 1.1-.7 1.8zm13.3-1.5c.3.5-.1.9-.9.9s-1.2-.4-.9-.9c.3-.4.7-.8.9-.8.2 0 .6.4.9.8zM279 370.4c0 .2-.8 1-1.7 1.7-1.6 1.3-1.7 1.2-.4-.4 1.3-1.6 2.1-2.1 2.1-1.3zm9.1 1c-1.2 1.4-3.5 1.6-4.7.3-.4-.3.3-.5 1.4-.2 1.2.2 2.4 0 2.7-.6.4-.5.9-.9 1.2-.9.3 0 0 .6-.6 1.4zm75 .3c1.3 1.6 1.2 1.7-.3.4-1-.7-1.8-1.5-1.8-1.7 0-.8.8-.3 2.1 1.3zm-88.7.1c.3.5-.1.9-.9.9s-1.2-.4-.9-.9c.3-.4.7-.8.9-.8.2 0 .6.4.9.8zm34.6-.4c0 .3-.4.8-1 1.1-.5.3-1 .1-1-.4 0-.6.5-1.1 1-1.1.6 0 1 .2 1 .4zm17.4.7c.3.2-2.6.5-6.4.5-3.8 0-6.7-.3-6.5-.6.4-.7 12.2-.6 12.9.1zm6.6-.1c0 .5-.2 1-.4 1-.3 0-.8-.5-1.1-1-.3-.6-.1-1 .4-1 .6 0 1.1.4 1.1 1zm3.4.6c.3.8.2 1.2-.4.9-.6-.3-1-1-1-1.6 0-1.4.7-1.1 1.4.7zm11.6-1.2c0 .2-.8 1-1.7 1.7-1.6 1.3-1.7 1.2-.4-.4 1.3-1.6 2.1-2.1 2.1-1.3zm10.5.6c-.5.7-8.2.6-9-.1-.2-.3 1.8-.5 4.4-.5 2.7 0 4.8.3 4.6.6zm16 .1c.3.3-.7.5-2.2.4-1.6-.1-3.5.3-4.3.9-1.3.9-1.3.9-.3-.5 1.2-1.5 5.5-2 6.8-.8zm6.5-.1c0 .5-.5 1-1.1 1-.5 0-.7-.5-.4-1 .3-.6.8-1 1.1-1 .2 0 .4.4.4 1zm5.1.7c1.2 1.6 1.2 1.7-.2.6-.9-.7-1.9-1-2.2-.6-.4.3-.7.1-.7-.5 0-1.7 1.6-1.5 3.1.5zm-103.3 3.8c-.3.3-.9-.2-1.2-1.2-.6-1.4-.5-1.5.5-.6.7.7 1 1.5.7 1.8zm27.5-1c-.3.9-.8 1.4-1 1.1-.3-.3-.2-.9.2-1.5.9-1.6 1.5-1.3.8.4zm47.4.3c-1 1-1.6 2.1-1.5 2.3.2.2.1.3-.1.1-.3-.1-.6-.9-.7-1.7-.1-.8.2-1.3.6-1 .5.3 1.1.1 1.5-.5.3-.5.9-1 1.2-1 .3 0-.1.8-1 1.8zm-83.6.9c1.3 1.6 1.2 1.7-.3.4-1.7-1.3-2.2-2.1-1.4-2.1.2 0 1 .8 1.7 1.7zm19-.3c-.5.6-.7 1.9-.5 2.9.1 1.1 0 1.6-.4 1.2-1.2-1.2-.9-5.2.4-5.2.9 0 1 .5.5 1.1zm5 .3c1.3 1.6 1.2 1.7-.3.4-1-.7-1.8-1.5-1.8-1.7 0-.8.8-.3 2.1 1.3zm21.9-1.3c0 .2-.8 1-1.7 1.7-1.6 1.3-1.7 1.2-.4-.4 1.3-1.6 2.1-2.1 2.1-1.3zm2.7 1.1c0 .8-.4 1.2-.9.9-.4-.3-.8-.9-.8-1.5 0-.5.4-.9.8-.9.5 0 .9.7.9 1.5zm21.3-1.1c0 .2-.8 1-1.7 1.7-1.6 1.3-1.7 1.2-.4-.4 1.3-1.6 2.1-2.1 2.1-1.3zm4.5 3.2c0 1.8-.3 3.5-.6 3.9-.3.3-.5-.7-.4-2.2.1-1.6-.2-3.3-.6-3.9-.5-.6-.3-1.1.4-1.1.8 0 1.3 1.2 1.2 3.3zm22.2-2.1c0 .8-.4 1.2-.9.9-.4-.3-.8-.9-.8-1.5 0-.5.4-.9.8-.9.5 0 .9.7.9 1.5zm-82.6 2.8c-1 .9-1.1.8-.5-.6.3-1 .9-1.5 1.2-1.2.3.3 0 1.1-.7 1.8zm-9 .4c1.3 1.6 1.2 1.7-.3.4-1.7-1.3-2.2-2.1-1.4-2.1.2 0 1 .8 1.7 1.7zm23.9.4c0 .5-.4.9-.8.9-.5 0-.9-.7-.9-1.5s.4-1.2.9-.9c.4.3.8.9.8 1.5zm11.7-.6c0 .8-.4 1.5-.9 1.5-1 0-1.1-1.4-.1-2.3.9-1 1-.9 1 .8zm12.3.6c0 .5-.4.9-.8.9-.5 0-.9-.7-.9-1.5s.4-1.2.9-.9c.4.3.8.9.8 1.5zm11.7-.6c0 .8-.4 1.5-.9 1.5-1 0-1.1-1.4-.1-2.3.9-1 1-.9 1 .8zm29.7 1.4c-.2.3-1.2-.3-2.2-1.3-1.6-1.7-1.6-1.8.5-.5 1.2.7 2 1.5 1.7 1.8zm6.6-.8c0 .5-.4.9-.8.9-.5 0-.9-.7-.9-1.5s.4-1.2.9-.9c.4.3.8.9.8 1.5zm-106-.7c0 .3-.4.8-1 1.1-.5.3-1 .1-1-.4 0-.6.5-1.1 1-1.1.6 0 1 .2 1 .4zm52 1c-.7.7-1.3.7-2 0-.6-.6-.3-1 1-1s1.6.4 1 1zm-35.9 1.3c1.3 1.6 1.2 1.7-.3.4-1.7-1.3-2.2-2.1-1.4-2.1.2 0 1 .8 1.7 1.7zm71.9-1.3c0 .2-.8 1-1.7 1.7-1.6 1.3-1.7 1.2-.4-.4 1.3-1.6 2.1-2.1 2.1-1.3zm-67.5 1.6c.3.6-.1.7-.9.4-1.8-.7-2.1-1.4-.7-1.4.6 0 1.3.4 1.6 1zm63.5-.6c0 .2-.7.7-1.6 1-.8.3-1.2.2-.9-.4.6-1 2.5-1.4 2.5-.6zm-16.6 3.6c-.6.6-1 .3-1-1s.4-1.6 1-1c.7.7.7 1.3 0 2zm-56.9-1.1c-.9.8-3.6 1-3 .2.2-.4 1.1-.8 2-.8.8 0 1.3.3 1 .6zm4.5-.3c0 .8-1.9 1.3-2.4.6-.3-.5.1-.9.9-.9s1.5.2 1.5.3zm34.4.2c.3.5-.1.9-.9.9s-1.2-.4-.9-.9c.3-.4.7-.8.9-.8.2 0 .6.4.9.8zm13 .1c-.7.8-7.4.9-6.9.1.2-.3 1.9-.6 3.9-.6 1.9 0 3.3.3 3 .5zm29.6.3c0 .4-.4.8-.9.8-.6 0-1.2-.4-1.5-.8-.3-.5.1-.9.9-.9s1.5.4 1.5.9zm-96 1.4c0 .8-1.9 1.3-2.4.6-.3-.5.1-.9.9-.9s1.5.2 1.5.3zm33 0c0 .8-1.9 1.3-2.4.6-.3-.5.1-.9.9-.9s1.5.2 1.5.3zm15 0c0 .8-1.9 1.3-2.4.6-.3-.5.1-.9.9-.9s1.5.2 1.5.3zm37-.2c0 .2-.8 1-1.7 1.7-1.6 1.3-1.7 1.2-.4-.4 1.3-1.6 2.1-2.1 2.1-1.3zm2.6 1.1c-.1.8-.5 1.7-.8 2.1-.5.4-.4-1.6.1-3.4.3-.9.9.1.7 1.3zm21.4-1.1c0 .2-.8 1-1.7 1.7-1.6 1.3-1.7 1.2-.4-.4 1.3-1.6 2.1-2.1 2.1-1.3zm3.5.6c-.3.5-1.2 1-1.8 1-.7 0-.6-.4.3-1 1.9-1.2 2.3-1.2 1.5 0zm-101 2.8c-.1.9.5 2.6 1.4 3.7 1.4 1.7 1.4 1.8 0 .7-.9-.6-1.8-1-2-.7-.3.2-.5-1.1-.5-3 0-1.8.3-3.2.7-2.9.4.2.6 1.2.4 2.2zm-16-.8c.3.5.1 1-.4 1-.6 0-1.1-.5-1.1-1 0-.6.2-1 .4-1 .3 0 .8.4 1.1 1zm27.5-.5c0 .2-.6.8-1.3 1.4-1 .8-1.4.7-1.4-.2 0-.8.6-1.4 1.4-1.4.7 0 1.3.1 1.3.2zm13 .5c0 .5-.5 1-1.1 1-.5 0-.7-.5-.4-1 .3-.6.8-1 1.1-1 .2 0 .4.4.4 1zm7.6 2.6c0 1.3-.2 2.2-.5 1.9-.3-.3-.6-1.7-.7-3.1 0-1.3.2-2.2.5-1.9.3.3.6 1.7.7 3.1zm22.1-2.1c0 .8-.4 1.2-.9.9-.4-.3-.8-.9-.8-1.5 0-.5.4-.9.8-.9.5 0 .9.7.9 1.5zm6.7-.7c.2.4-.4.8-1.4.8-1 0-1.6-.4-1.4-.8.3-.4.9-.8 1.4-.8.5 0 1.1.4 1.4.8zm6.6-.4c0 .2-.8 1-1.7 1.7-1.6 1.3-1.7 1.2-.4-.4 1.3-1.6 2.1-2.1 2.1-1.3zm18.7 1.1c0 .8-.4 1.2-.9.9-.4-.3-.8-.9-.8-1.5 0-.5.4-.9.8-.9.5 0 .9.7.9 1.5zm-98.4 1c-.3.9-.8 1.4-1 1.1-.3-.3-.2-.9.2-1.5.9-1.6 1.5-1.3.8.4zm32.5 1c-.3.3-.9-.2-1.2-1.2-.6-1.4-.5-1.5.5-.6.7.7 1 1.5.7 1.8zm15.5-1c-.3.9-.8 1.4-1 1.1-.3-.3-.2-.9.2-1.5.9-1.6 1.5-1.3.8.4zm-7.3.5c0 .5-.4 1-1 1-.5 0-1-.5-1-1 0-.6.5-1 1-1 .6 0 1 .4 1 1zm67.6 1.5c.1.8-.1 1.7-.5 1.9-.4.3-.7-.6-.7-1.9 0-2.5.8-2.5 1.2 0zm-112.3 0c-.3.9-.8 1.4-1 1.1-.3-.3-.2-.9.2-1.5.9-1.6 1.5-1.3.8.4zm40.2-.6c.3.5.2 1.2-.3 1.5-.5.3-.9-.1-.9-.9 0-1.7.3-1.9 1.2-.6zm34.5 1.2c0 .5-.4.9-.8.9-.5 0-.9-.7-.9-1.5s.4-1.2.9-.9c.4.3.8.9.8 1.5zm4-1.7c0 .2-.8 1-1.7 1.7-1.6 1.3-1.7 1.2-.4-.4 1.3-1.6 2.1-2.1 2.1-1.3zm28 1.7c0 .5-.4.9-.8.9-.5 0-.9-.7-.9-1.5s.4-1.2.9-.9c.4.3.8.9.8 1.5zm-78.4.5c-.1.8-.6 1.7-1.2 2.1-.5.4-.6.4-.2-.1.4-.5.3-1.4-.2-2.1-.7-.8-.5-1.2.4-1.2.8 0 1.3.6 1.2 1.3zm37.8 0c.3.8.2 1.2-.4.9-.6-.3-1-1-1-1.6 0-1.4.7-1.1 1.4.7zm19.7.7c-1 .9-1.1.8-.5-.6.3-1 .9-1.5 1.2-1.2.3.3 0 1.1-.7 1.8zm-53.4 0c0 .8-.6 1.4-1.4 1.4-.9 0-1-.4-.2-1.4.6-.7 1.2-1.3 1.4-1.3.1 0 .2.6.2 1.3zm24.2 0c.8 1 .7 1.4-.2 1.4-.8 0-1.4-.6-1.4-1.4 0-.7.1-1.3.2-1.3.2 0 .8.6 1.4 1.3zm-47.5.5c.3.5-.1.9-.9.9s-1.5-.4-1.5-.9c0-.4.4-.8.9-.8.6 0 1.2.4 1.5.8zm36 0c.2.4-.4.8-1.4.8-1 0-1.6-.4-1.4-.8.3-.4.9-.8 1.4-.8.5 0 1.1.4 1.4.8zm-54.7 1.7c0 .8-.4 1.5-.9 1.5-1 0-1.1-1.4-.1-2.3.9-1 1-.9 1 .8zm27.7.6c.3.2-1 .5-2.9.5-1.8 0-3.2-.3-3-.7.5-.7 5.2-.6 5.9.2zm46.1-.1c.3.5.1 1-.4 1-.6 0-1.1-.5-1.1-1 0-.6.2-1 .4-1 .3 0 .8.4 1.1 1zm14-.1c-.8.7-8.5.8-9 .1-.2-.3 1.9-.6 4.6-.6 2.6 0 4.6.2 4.4.5zm3.6.8c1.3 1.6 1.2 1.7-.3.4-1.7-1.3-2.2-2.1-1.4-2.1.2 0 1 .8 1.7 1.7zm11.3-.6c.3.2-1 .5-2.9.5-1.8 0-3.2-.3-3-.7.5-.7 5.2-.6 5.9.2zm3.6-.7c0 .3-.4.8-1 1.1-.5.3-1 .1-1-.4 0-.6.5-1.1 1-1.1.6 0 1 .2 1 .4zm11.5.7c.3.3-.6.5-1.9.5-1.4-.1-2.8-.4-3.1-.7-.3-.3.6-.5 1.9-.5 1.4.1 2.8.4 3.1.7zm-104 .8c.3.5.2 1.2-.3 1.5-.5.3-.9-.1-.9-.9 0-1.7.3-1.9 1.2-.6zm8 2.1c1 1.1 1.6 2 1.3 2-.3 0-1.3-.9-2.3-2-1-1.1-1.6-2-1.3-2 .3 0 1.3.9 2.3 2zm-4.2.5c-.3.9-.8 1.4-1 1.1-.3-.3-.2-.9.2-1.5.9-1.6 1.5-1.3.8.4zm24.2 3c.1 1.9-.1 3.2-.4 2.9-.3-.3-.6-2.1-.6-3.9-.1-1.9.1-3.2.4-2.9.3.3.6 2.1.6 3.9zm24-1.1c0 1.9-.3 3.7-.6 4-.4.5-.4-6.2 0-7.2s.7.4.6 3.2zm41.8-1.9c-.3.9-.8 1.4-1 1.1-.3-.3-.2-.9.2-1.5.9-1.6 1.5-1.3.8.4zm4.5 1c-.3.3-.9-.2-1.2-1.2-.6-1.4-.5-1.5.5-.6.7.7 1 1.5.7 1.8zm-78.1 0c0 .8-.4 1.2-.9.9-.5-.3-.6-1-.3-1.5.9-1.3 1.2-1.1 1.2.6zm66.3-.6c0 .6-.4 1.2-.8 1.5-.5.3-.9-.1-.9-.9s.4-1.5.9-1.5c.4 0 .8.4.8.9zm-62.7 1.6c-.3.9-.8 1.4-1 1.1-.3-.3-.2-.9.2-1.5.9-1.6 1.5-1.3.8.4zm48.3 1.1c.1.9 0 1.3-.4 1-.3-.4-.7-1.4-.8-2.2-.1-.9 0-1.3.4-1 .3.4.7 1.4.8 2.2zm-55.6-.8c0 .5-.7.9-1.5.9s-1.2-.4-.9-.9c.3-.4.9-.8 1.5-.8.5 0 .9.4.9.8zm52 0c0 .5-.7.9-1.5.9s-1.2-.4-.9-.9c.3-.4.9-.8 1.5-.8.5 0 .9.4.9.8zm13.7 1.7c0 .8-.4 1.5-.9 1.5-1 0-1.1-1.4-.1-2.3.9-1 1-.9 1 .8zm-76.2.6c.3.3-.6.5-1.9.5-1.4-.1-2.8-.4-3.1-.7-.3-.3.6-.5 1.9-.5 1.4.1 2.8.4 3.1.7zm14.5-.7c0 .3-.4.8-1 1.1-.5.3-1 .1-1-.4 0-.6.5-1.1 1-1.1.6 0 1 .2 1 .4zm17.5.7c.3.3-.7.5-2.2.4-1.6-.1-3.7.5-4.8 1.4-1.8 1.5-1.9 1.5-.7 0 .6-.9 1-1.8.7-2.1-.3-.2 1.1-.4 3-.3 1.8 0 3.6.3 4 .6zm10-.2c-.3.2.1 1.1.7 2 1.2 1.5 1.1 1.5-.7 0-1.1-.9-3.2-1.5-4.7-1.4-1.5.1-2.5-.1-2.3-.4.2-.4 1.9-.7 3.9-.7 1.9 0 3.3.2 3.1.5zm17.5 1.5c0 .2-.8 1-1.7 1.7-1.6 1.3-1.7 1.2-.4-.4 1.3-1.6 2.1-2.1 2.1-1.3zm-57.4 3.2c.1.9 0 1.3-.4 1-.3-.4-.7-1.4-.8-2.2-.1-.9 0-1.3.4-1 .3.4.7 1.4.8 2.2zm65.9-.7c.3.5.2 1.2-.3 1.5-.5.3-.9-.1-.9-.9 0-1.7.3-1.9 1.2-.6zm4 .9c-.3.3-1.1 0-1.8-.7-.9-1-.8-1.1.6-.5 1 .3 1.5.9 1.2 1.2zm-53 1.2c-.3.5-1.2 1-1.8 1-.7 0-.6-.4.3-1 1.9-1.2 2.3-1.2 1.5 0zm36.5-.6c0 .2-.8 1-1.7 1.7-1.6 1.3-1.7 1.2-.4-.4 1.3-1.6 2.1-2.1 2.1-1.3zm2.6 3.2c.1.9 0 1.3-.4 1-.3-.4-.7-1.4-.8-2.2-.1-.9 0-1.3.4-1 .3.4.7 1.4.8 2.2zm-35.9-.1c0 .8-.4 1.2-.9.9-.5-.3-.6-1-.3-1.5.9-1.3 1.2-1.1 1.2.6zm3.8 1.5c.3.5.1 1-.4 1-.6 0-1.1-.5-1.1-1 0-.6.2-1 .4-1 .3 0 .8.4 1.1 1zm4.2.7c0 .9-.4 1-1.4.2-.7-.6-1.3-1.2-1.3-1.4 0-.1.6-.2 1.3-.2.8 0 1.4.6 1.4 1.4zm8.7-.5c-.3.4-.9.8-1.5.8-.5 0-.9-.4-.9-.8 0-.5.7-.9 1.5-.9s1.2.4.9.9z"/><path d="M541.7 243.6c-.1.2-1.8.6-3.7.9-38.3 6.5-70.7 35.3-82.5 73.5-.9 3-1.8 6-2 6.6-.2.8-1.9.9-5.7.3-2.9-.5-7.3-1.1-9.8-1.4-2.5-.2-6.1-.7-8-.9-1.9-.3-5.7-.8-8.5-1.1-2.7-.4-6.1-.8-7.5-1-18.5-2.5-20.8-2.5-23.8 0-2 1.7-2.6 3.1-2.5 6.1.2 5.6 3.3 7.9 11.9 8.9 3.8.4 7.8.8 8.9 1 1.1.2 4 .6 6.5.9 6.9.9 13.2 1.7 16.5 2.1 1.7.3 5.9.7 9.5 1.1 8.3.8 8.9.9 9.4 1.5.2.2.6 4.9 1 10.4.3 5.5.8 11.1 1.1 12.5.3 1.4.8 3.8 1 5.5 2.1 12 12.3 33.3 20.4 42.9 22.6 26.5 51.6 40 84.5 39.1 6.7-.2 13.2-.6 14.6-.9 1.4-.3 3.9-.8 5.5-1.2 6-1.1 16.2-4.7 23-8 30.5-14.7 51.4-42.1 57.9-75.9 2.3-12.1 1.5-32.2-1.8-45-7.8-30-29-55.5-57-68.5-8.7-4.1-15.3-6.5-20.1-7.3-1.6-.3-5.2-1-8-1.6-4.4-.8-30-1.3-30.8-.5zM221.1 385.5c-17.7 14.3-30.8 24.2-31.5 23.8-.6-.4-3.3-2.5-6.1-4.8-14.6-11.8-36.7-18.8-57-18-11.8.5-15.2 1.1-26 4.6-26.7 8.9-48 30.2-56.9 57.1-3.4 10.4-4.4 17.3-4.4 30.1.1 11.1.6 14.5 4.1 25.7 9 29.2 33 51.8 64.3 60.6 9.1 2.5 31 2.7 41.4.3 36.5-8.5 63-36.6 69.5-73.8 1.8-10.3 1.1-26.3-1.6-36.5-2.2-8.2-7.6-20.7-12.3-28.3l-2.6-4.1 18.2-14.6c10.1-8.1 19-15.2 19.8-15.9.8-.7 3.5-2.8 6-4.7 14.1-11.1 17-14.1 17-17.9 0-2.2-.9-4-2.6-5.6-5.4-5-6.2-4.6-39.3 22z"/></svg>