<svg xmlns="http://www.w3.org/2000/svg" width="38" height="38" viewBox="0 0 10.054 10.054" class="periodic-table-logo" fill="#fff"><path d="M3.146 1.905a1.301 1.301 0 00-1.301 1.301 1.301 1.301 0 001.009 1.266 1.596 1.596 0 011.553-1.581 1.301 1.301 0 00-1.261-.986zm4.841 1.581a1.508 1.508 0 00-1.47 1.178l-.824-.1a.126.126 0 00-.14.11.126.126 0 00.11.14l.821.1a1.508 1.508 0 00-.004.081 1.508 1.508 0 001.508 1.508 1.508 1.508 0 001.508-1.508 1.508 1.508 0 00-1.508-1.508zm-4.331 1.69a.126.126 0 00-.078.028l-.843.683a1.301 1.301 0 00-.874-.34A1.301 1.301 0 00.56 6.848a1.301 1.301 0 001.301 1.301 1.301 1.301 0 001.301-1.301 1.301 1.301 0 00-.257-.774l.832-.674a.126.126 0 00.019-.177.126.126 0 00-.099-.047z"></path><path d="M4.45 2.978a1.508 1.508 0 00-1.508 1.508 1.508 1.508 0 00.297.895l.292-.237a.201.201 0 01.283.03.201.201 0 01-.03.283l-.265.215a1.508 1.508 0 00.931.322 1.508 1.508 0 001.444-1.077l-.241-.029a.201.201 0 01-.175-.224.201.201 0 01.224-.175l.255.031a1.508 1.508 0 00.002-.034 1.508 1.508 0 00-1.508-1.508z" opacity=".7"></path></svg>