<svg xmlns="http://www.w3.org/2000/svg" width="1200" height="627">
  <path fill="#0078d7" d="M0 0h1200v626.99H0z"/>
  <rect x="32.5" y="32.5" rx="20" ry="20" width="1135" height="562" stroke="#fff" stroke-width="5" fill="none"/>
  <text font-weight="600" font-family="Montserrat" font-size="32" x="89.21" y="176.85" fill="#fff" letter-spacing="4.81" fill-opacity=".64">ES.PERIODIC-TABLE.IO</text>
  <text font-weight="500" font-family="Montserrat" font-size="64" x="81.63" y="359.8" fill="#fff" transform="translate(10.65 -77.34)">
    <tspan x="81.63" y="359.8">View the list of all elements </tspan>
  </text>
  <g fill="#fff">
    <path d="M1047.67 476.2a18.92 18.92 0 00-18.91 18.92 18.92 18.92 0 0014.67 18.4 23.2 23.2 0 0122.58-22.98 18.92 18.92 0 00-18.34-14.34zm70.39 22.99a21.93 21.93 0 00-21.37 17.13l-11.99-1.46a1.83 1.83 0 00-2.03 1.6 1.83 1.83 0 001.6 2.04l11.94 1.45a21.93 21.93 0 00-.06 1.18 21.93 21.93 0 0021.92 21.93 21.93 21.93 0 0021.93-21.93 21.93 21.93 0 00-21.93-21.93zm-62.97 24.57a1.83 1.83 0 00-1.14.41l-12.25 9.93a18.92 18.92 0 00-12.71-4.94 18.92 18.92 0 00-18.92 18.91A18.92 18.92 0 001029 567a18.92 18.92 0 0018.91-18.92 18.92 18.92 0 00-3.73-11.25l12.1-9.8a1.83 1.83 0 00.27-2.57 1.83 1.83 0 00-1.44-.69z"/>
    <path d="M1066.63 491.8a21.93 21.93 0 00-21.92 21.93 21.93 21.93 0 004.31 13.01l4.25-3.44a2.92 2.92 0 014.11.43 2.92 2.92 0 01-.43 4.12l-3.86 3.12a21.93 21.93 0 0013.54 4.69 21.93 21.93 0 0021-15.66l-3.5-.42a2.92 2.92 0 01-2.55-3.26 2.92 2.92 0 013.26-2.55l3.7.45a21.93 21.93 0 00.03-.49 21.93 21.93 0 00-21.92-21.93z" opacity=".7"/>
  </g>
</svg>